<?xml version="1.0" encoding="utf-8"?>
<!-- Generator: Adobe Illustrator 16.0.0, SVG Export Plug-In . SVG Version: 6.00 Build 0)  -->
<!DOCTYPE svg PUBLIC "-//W3C//DTD SVG 1.1//EN" "http://www.w3.org/Graphics/SVG/1.1/DTD/svg11.dtd">
<svg version="1.1" id="Layer_1" xmlns="http://www.w3.org/2000/svg" xmlns:xlink="http://www.w3.org/1999/xlink" x="0px" y="0px"
	 width="651.046px" height="162px" viewBox="0 0 651.046 162" enable-background="new 0 0 651.046 162" xml:space="preserve">
<g id="Type">
	<g>
		<g>
			<path fill="#FFFFFF" d="M642.834,62.686l-11.699,10.33c-4.111-5.716-8.297-8.58-12.559-8.58c-2.076,0-3.768,0.557-5.09,1.665
				c-1.316,1.113-1.98,2.366-1.98,3.757c0,1.392,0.473,2.709,1.414,3.95c1.283,1.654,5.148,5.213,11.594,10.667
				c6.031,5.043,9.688,8.23,10.973,9.543c3.199,3.234,5.473,6.332,6.814,9.281c1.338,2.961,2.008,6.184,2.008,9.684
				c0,6.814-2.354,12.439-7.066,16.883c-4.709,4.438-10.848,6.656-18.422,6.656c-5.914,0-11.063-1.447-15.453-4.346
				c-4.389-2.895-8.148-7.451-11.273-13.66l13.289-8.018c3.992,7.338,8.592,11.01,13.793,11.01c2.715,0,4.994-0.791,6.842-2.371
				c1.846-1.584,2.771-3.404,2.771-5.477c0-1.885-0.701-3.764-2.096-5.646c-1.395-1.879-4.469-4.76-9.217-8.639
				c-9.051-7.371-14.895-13.066-17.535-17.074c-2.639-4.01-3.955-8.006-3.955-11.996c0-5.759,2.195-10.699,6.584-14.814
				c4.393-4.121,9.807-6.183,16.25-6.183c4.146,0,8.094,0.958,11.842,2.88C634.405,54.106,638.467,57.608,642.834,62.686z"/>
			<path fill="#FFFFFF" d="M569.463,73.016h15.41v61.417h-15.41v-6.492c-3.008,2.859-6.021,4.92-9.051,6.186
				c-3.023,1.258-6.305,1.889-9.838,1.889c-7.932,0-14.789-3.076-20.58-9.229c-5.785-6.154-8.682-13.805-8.682-22.943
				c0-9.484,2.799-17.258,8.402-23.316c5.6-6.059,12.398-9.088,20.404-9.088c3.688,0,7.145,0.696,10.373,2.088
				c3.232,1.393,6.225,3.484,8.971,6.269V73.016L569.463,73.016z M553.262,85.664c-4.764,0-8.719,1.682-11.865,5.053
				c-3.154,3.367-4.727,7.688-4.727,12.953c0,5.305,1.6,9.672,4.807,13.098c3.205,3.426,7.156,5.141,11.844,5.141
				c4.844,0,8.855-1.689,12.037-5.055c3.191-3.373,4.785-7.781,4.785-13.24c0-5.344-1.594-9.666-4.785-12.98
				C562.174,87.318,558.139,85.664,553.262,85.664z"/>
			<path fill="#FFFFFF" d="M496.034,73.016h15.416v61.417h-15.416v-6.492c-3.008,2.859-6.02,4.92-9.045,6.186
				c-3.029,1.258-6.305,1.889-9.844,1.889c-7.926,0-14.787-3.076-20.58-9.229c-5.785-6.154-8.682-13.805-8.682-22.943
				c0-9.484,2.801-17.258,8.398-23.316c5.604-6.059,12.402-9.088,20.41-9.088c3.688,0,7.145,0.696,10.373,2.088
				c3.232,1.393,6.229,3.484,8.965,6.269v-6.778h0.004V73.016z M479.838,85.664c-4.766,0-8.727,1.682-11.871,5.053
				c-3.154,3.367-4.729,7.688-4.729,12.953c0,5.305,1.602,9.672,4.809,13.098c3.211,3.426,7.154,5.141,11.844,5.141
				c4.84,0,8.855-1.689,12.037-5.055c3.189-3.373,4.785-7.781,4.785-13.24c0-5.344-1.596-9.666-4.785-12.98
				C488.745,87.318,484.713,85.664,479.838,85.664z"/>
			<path fill="#FFFFFF" d="M390.485,51.399h16.77c9.066,0,15.607,0.84,19.617,2.51c4.002,1.675,7.166,4.383,9.479,8.13
				c2.318,3.747,3.475,8.231,3.475,13.46c0,5.797-1.516,10.615-4.545,14.453c-3.023,3.838-7.139,6.514-12.332,8.018
				c-3.051,0.867-8.602,1.297-16.65,1.297v35.17h-15.811V51.399H390.485z M406.292,83.855h5.025c3.949,0,6.695-0.283,8.242-0.846
				c1.541-0.568,2.756-1.504,3.641-2.806c0.883-1.307,1.326-2.879,1.326-4.73c0-3.207-1.242-5.551-3.725-7.021
				c-1.814-1.098-5.154-1.645-10.047-1.645h-4.463V83.855L406.292,83.855z"/>
			<path fill="#FFFFFF" d="M322.366,73.016h15.408v6.294c3.496-2.943,6.664-4.993,9.502-6.145c2.836-1.151,5.736-1.729,8.707-1.729
				c6.086,0,11.256,2.125,15.502,6.381c3.568,3.611,5.355,8.953,5.355,16.029v40.588h-15.238v-26.895
				c0-7.328-0.33-12.197-0.984-14.604c-0.658-2.408-1.803-4.238-3.436-5.498c-1.633-1.262-3.65-1.889-6.055-1.889
				c-3.115,0-5.791,1.043-8.021,3.127c-2.238,2.086-3.785,4.971-4.652,8.652c-0.449,1.922-0.674,6.074-0.674,12.461v24.643h-15.409
				L322.366,73.016L322.366,73.016z"/>
			<path fill="#FFFFFF" d="M312.78,108.188h-49.504c0.711,4.361,2.623,7.836,5.729,10.416c3.104,2.574,7.064,3.863,11.883,3.863
				c5.758,0,10.707-2.014,14.846-6.037l12.985,6.098c-3.237,4.588-7.114,7.984-11.631,10.188c-4.517,2.205-9.879,3.303-16.088,3.303
				c-9.634,0-17.479-3.041-23.54-9.115c-6.059-6.072-9.088-13.689-9.088-22.832c0-9.373,3.021-17.148,9.061-23.344
				c6.043-6.191,13.612-9.286,22.721-9.286c9.672,0,17.537,3.094,23.599,9.286c6.058,6.192,9.089,14.368,9.089,24.524
				L312.78,108.188z M297.371,96.049c-1.017-3.422-3.022-6.209-6.021-8.355c-2.998-2.141-6.479-3.217-10.437-3.217
				c-4.295,0-8.065,1.203-11.308,3.613c-2.037,1.504-3.922,4.158-5.654,7.959H297.371z"/>
			<path fill="#FFFFFF" d="M193.12,73.016v6.776c2.786-2.783,5.794-4.876,9.032-6.269c3.235-1.393,6.698-2.088,10.386-2.088
				c8.016,0,14.829,3.03,20.434,9.088c5.608,6.062,8.414,13.83,8.414,23.314c0,9.143-2.9,16.791-8.691,22.945
				c-5.796,6.148-12.667,9.229-20.605,9.229c-3.538,0-6.83-0.631-9.878-1.891c-3.048-1.266-6.079-3.322-9.088-6.184v28.957h-15.297
				V73.011L193.12,73.016L193.12,73.016z M209.317,85.664c-4.854,0-8.879,1.652-12.078,4.967c-3.198,3.313-4.798,7.639-4.798,12.979
				c0,5.461,1.601,9.871,4.798,13.242c3.198,3.367,7.224,5.055,12.078,5.055c4.705,0,8.666-1.715,11.885-5.141
				c3.218-3.426,4.825-7.793,4.825-13.098c0-5.27-1.579-9.586-4.742-12.951C218.127,87.346,214.136,85.664,209.317,85.664z"/>
		</g>
	</g>
</g>
<g id="Logo">
	<g>
		<path fill="#FFFFFF" d="M124.515,49.311c11.749,0,21.854,4.25,30.305,12.754c8.457,8.506,12.683,18.873,12.683,31.105
			c0,12.117-4.172,22.373-12.511,30.766c-8.342,8.395-18.46,12.59-30.362,12.59c-12.463,0-22.82-4.309-31.068-12.926
			s-12.37-18.855-12.37-30.707c0-7.943,1.922-15.246,5.759-21.902c3.843-6.664,9.126-11.941,15.846-15.838
			C109.518,51.259,116.758,49.311,124.515,49.311z M124.349,64.774c-7.686,0-14.146,2.676-19.384,8.019
			c-5.237,5.347-7.854,12.139-7.854,20.375c0,9.186,3.297,16.447,9.891,21.791c5.122,4.18,10.999,6.268,17.628,6.268
			c7.496,0,13.882-2.709,19.154-8.131c5.277-5.416,7.914-12.096,7.914-20.039c0-7.898-2.658-14.59-7.967-20.066
			C138.417,67.514,131.955,64.774,124.349,64.774z"/>
		<g>
			<path fill="#FFFFFF" d="M52.646,99.525c6.269,0,11.37,5.102,11.37,11.371c0,6.271-5.101,11.373-11.37,11.373
				c-6.271,0-11.373-5.104-11.373-11.373S46.375,99.525,52.646,99.525 M52.646,91.303c-10.821,0-19.594,8.771-19.594,19.594
				s8.772,19.596,19.594,19.596c10.82,0,19.591-8.771,19.591-19.596S63.466,91.303,52.646,91.303L52.646,91.303z"/>
		</g>
		<g>
			<path fill="#FFFFFF" d="M46.201,18.807c14.204,0,25.76,11.557,25.76,25.762S60.404,70.33,46.201,70.33
				c-14.205,0-25.761-11.558-25.761-25.761C20.439,30.364,31.997,18.807,46.201,18.807 M46.201,5.106
				c-21.796,0-39.463,17.668-39.463,39.463s17.667,39.462,39.463,39.462c21.795,0,39.462-17.667,39.462-39.462
				S67.996,5.106,46.201,5.106L46.201,5.106z"/>
		</g>
	</g>
</g>
</svg>
