<?xml version="1.0" encoding="UTF-8" standalone="no"?><!DOCTYPE svg PUBLIC "-//W3C//DTD SVG 1.1//EN" "http://www.w3.org/Graphics/SVG/1.1/DTD/svg11.dtd"><svg width="100%" height="100%" viewBox="0 0 255 255" version="1.1" xmlns="http://www.w3.org/2000/svg" xmlns:xlink="http://www.w3.org/1999/xlink" xml:space="preserve" style="fill-rule:evenodd;clip-rule:evenodd;stroke-linejoin:round;stroke-miterlimit:1.41421;"><rect id="Control-Center" x="0" y="0" width="255" height="255" style="fill:none;"/><g><path d="M198.333,191.25l-141.666,0c-7.418,0 -14.167,-6.749 -14.167,-14.167l0,-99.166c0,-7.418 6.749,-14.167 14.167,-14.167l141.666,0c7.418,0 14.167,6.749 14.167,14.167l0,99.166c0,7.418 -6.749,14.167 -14.167,14.167Z" style="fill:#2196f3;"/><path id="account" d="M116.338,83.99c11.933,0 21.607,9.674 21.607,21.607c0,11.932 -9.674,21.606 -21.607,21.606c-11.933,0 -21.606,-9.674 -21.606,-21.606c0,-11.933 9.673,-21.607 21.606,-21.607Zm0,54.017c23.867,0 43.214,9.673 43.214,21.606l0,10.804l-86.427,0l0,-10.804c0,-11.933 19.347,-21.606 43.213,-21.606Z" style="fill:#fff;fill-rule:nonzero;"/><path id="settings" d="M153.182,139.826c-6.578,0 -11.91,-5.332 -11.91,-11.909c0,-6.577 5.332,-11.91 11.91,-11.91c6.577,0 11.909,5.333 11.909,11.91c0,6.577 -5.332,11.909 -11.909,11.909Zm25.278,-8.588c0.143,-1.092 0.238,-2.195 0.238,-3.321c0,-1.126 -0.095,-2.229 -0.238,-3.321l7.19,-5.628c0.64,-0.517 0.827,-1.436 0.402,-2.171l-6.806,-11.787c-0.422,-0.735 -1.313,-1.034 -2.082,-0.738l-8.469,3.413c-1.756,-1.348 -3.679,-2.488 -5.751,-3.345l-1.276,-9.017c-0.129,-0.81 -0.834,-1.433 -1.681,-1.433l-13.611,0c-0.85,0 -1.551,0.623 -1.68,1.433l-1.276,9.013c-2.076,0.861 -3.999,2.001 -5.754,3.349l-8.466,-3.413c-0.769,-0.296 -1.661,0.003 -2.083,0.738l-6.805,11.787c-0.425,0.735 -0.238,1.654 0.402,2.171l7.186,5.628c-0.143,1.088 -0.238,2.195 -0.238,3.321c0,1.126 0.095,2.232 0.238,3.321l-7.186,5.625c-0.64,0.52 -0.827,1.438 -0.402,2.174l6.805,11.786c0.422,0.735 1.314,1.035 2.083,0.739l8.469,-3.413c1.756,1.347 3.678,2.487 5.751,3.345l1.276,9.017c0.129,0.81 0.83,1.432 1.68,1.432l13.611,0c0.847,0 1.552,-0.622 1.681,-1.432l1.276,-9.017c2.069,-0.861 3.991,-1.998 5.747,-3.348l8.473,3.416c0.769,0.296 1.66,-0.004 2.082,-0.739l6.806,-11.786c0.425,-0.736 0.238,-1.654 -0.402,-2.174l-7.19,-5.625Z" style="fill:#ffc107;fill-rule:nonzero;"/><path d="M160.073,91.889l0.085,0.003l0.085,0.005l0.085,0.007l0.084,0.009l0.083,0.01l0.084,0.013l0.083,0.014l0.081,0.016l0.082,0.018l0.081,0.02l0.08,0.022l0.08,0.023l0.078,0.025l0.077,0.026l0.078,0.028l0.076,0.03l0.076,0.032l0.075,0.033l0.073,0.035l0.072,0.036l0.072,0.037l0.071,0.04l0.07,0.04l0.068,0.042l0.068,0.044l0.067,0.045l0.065,0.046l0.064,0.047l0.064,0.049l0.062,0.051l0.061,0.051l0.06,0.053l0.059,0.054l0.058,0.056l0.056,0.056l0.055,0.057l0.054,0.059l0.053,0.061l0.051,0.061l0.05,0.062l0.049,0.063l0.048,0.065l0.046,0.066l0.044,0.066l0.044,0.068l0.042,0.069l0.04,0.07l0.039,0.07l0.038,0.072l0.036,0.073l0.034,0.073l0.033,0.075l0.032,0.075l0.029,0.076l0.029,0.078l0.026,0.078l0.025,0.079l0.023,0.079l0.021,0.08l0.02,0.081l0.018,0.081l0.016,0.082l0.015,0.089l1.124,7.944l0.185,0.087l0.204,0.099l0.203,0.1l0.202,0.101l0.201,0.104l0.2,0.105l0.199,0.106l0.197,0.108l0.197,0.11l0.196,0.111l0.194,0.112l0.194,0.114l0.192,0.116l0.191,0.117l0.19,0.119l0.19,0.12l0.188,0.121l0.187,0.123l0.186,0.124l0.184,0.126l0.184,0.127l0.148,0.104l7.459,-3.006l0.082,-0.031l0.08,-0.027l0.079,-0.026l0.08,-0.023l0.08,-0.022l0.08,-0.02l0.081,-0.018l0.081,-0.017l0.081,-0.014l0.081,-0.012l0.082,-0.011l0.081,-0.009l0.081,-0.007l0.081,-0.006l0.081,-0.003l0.082,-0.002l0.08,0l0.081,0.002l0.08,0.004l0.081,0.005l0.08,0.007l0.08,0.009l0.079,0.01l0.08,0.012l0.079,0.014l0.078,0.016l0.078,0.017l0.078,0.019l0.078,0.021l0.077,0.022l0.075,0.023l0.077,0.026l0.075,0.028l0.075,0.028l0.074,0.031l0.074,0.032l0.073,0.034l0.072,0.035l0.072,0.037l0.071,0.039l0.07,0.04l0.069,0.042l0.069,0.043l0.068,0.045l0.067,0.047l0.066,0.048l0.065,0.05l0.064,0.051l0.063,0.053l0.062,0.054l0.061,0.056l0.06,0.057l0.059,0.059l0.057,0.061l0.056,0.061l0.056,0.064l0.053,0.064l0.052,0.066l0.051,0.068l0.05,0.068l0.048,0.071l0.047,0.071l0.045,0.073l0.036,0.062l6.815,11.803l0.036,0.064l0.04,0.075l0.039,0.076l0.036,0.076l0.035,0.078l0.033,0.077l0.031,0.079l0.029,0.079l0.027,0.079l0.025,0.079l0.023,0.081l0.022,0.079l0.02,0.081l0.018,0.081l0.016,0.081l0.014,0.081l0.012,0.081l0.011,0.081l0.008,0.081l0.007,0.081l0.005,0.082l0.003,0.081l0.002,0.081l0,0.08l-0.002,0.081l-0.004,0.081l-0.006,0.08l-0.007,0.08l-0.009,0.08l-0.011,0.079l-0.012,0.08l-0.014,0.079l-0.016,0.078l-0.018,0.078l-0.019,0.078l-0.021,0.077l-0.022,0.077l-0.025,0.076l-0.025,0.076l-0.028,0.075l-0.029,0.075l-0.031,0.074l-0.032,0.073l-0.034,0.073l-0.036,0.072l-0.037,0.072l-0.038,0.07l-0.041,0.07l-0.042,0.07l-0.044,0.068l-0.045,0.068l-0.047,0.066l-0.048,0.066l-0.05,0.065l-0.051,0.064l-0.053,0.063l-0.054,0.061l-0.056,0.061l-0.057,0.059l-0.059,0.059l-0.061,0.058l-0.062,0.055l-0.063,0.055l-0.068,0.056l-6.329,4.954l0.016,0.167l0.019,0.222l0.018,0.223l0.016,0.224l0.014,0.225l0.012,0.227l0.01,0.227l0.008,0.229l0.006,0.229l0.004,0.231l0.001,0.232l-0.001,0.231l-0.004,0.231l-0.006,0.23l-0.008,0.228l-0.01,0.227l-0.012,0.227l-0.014,0.225l-0.016,0.224l-0.018,0.224l-0.019,0.222l-0.016,0.166l6.331,4.953l0.071,0.058l0.062,0.055l0.062,0.056l0.061,0.058l0.058,0.058l0.057,0.059l0.056,0.061l0.054,0.062l0.052,0.062l0.051,0.064l0.05,0.065l0.048,0.066l0.047,0.066l0.045,0.068l0.043,0.068l0.042,0.069l0.041,0.071l0.038,0.071l0.037,0.071l0.036,0.071l0.034,0.073l0.032,0.074l0.03,0.073l0.029,0.075l0.028,0.076l0.026,0.076l0.024,0.076l0.022,0.077l0.021,0.076l0.019,0.078l0.018,0.078l0.016,0.079l0.014,0.079l0.012,0.079l0.011,0.079l0.009,0.08l0.007,0.08l0.006,0.08l0.004,0.081l0.002,0.081l0,0.081l-0.002,0.08l-0.003,0.082l-0.005,0.081l-0.007,0.081l-0.008,0.082l-0.011,0.08l-0.012,0.081l-0.014,0.082l-0.016,0.08l-0.018,0.081l-0.02,0.081l-0.022,0.08l-0.023,0.08l-0.025,0.08l-0.027,0.078l-0.029,0.079l-0.031,0.079l-0.033,0.077l-0.035,0.078l-0.036,0.076l-0.039,0.077l-0.04,0.075l-0.036,0.063l-6.815,11.804l-0.036,0.062l-0.045,0.072l-0.047,0.071l-0.048,0.071l-0.05,0.068l-0.05,0.068l-0.053,0.066l-0.054,0.065l-0.055,0.063l-0.055,0.061l-0.058,0.061l-0.059,0.059l-0.06,0.057l-0.061,0.057l-0.062,0.054l-0.063,0.052l-0.063,0.051l-0.066,0.05l-0.066,0.049l-0.068,0.047l-0.067,0.044l-0.068,0.043l-0.071,0.043l-0.069,0.039l-0.07,0.039l-0.073,0.038l-0.072,0.035l-0.072,0.033l-0.075,0.033l-0.074,0.03l-0.075,0.029l-0.076,0.027l-0.075,0.026l-0.076,0.023l-0.077,0.023l-0.078,0.02l-0.079,0.02l-0.078,0.017l-0.076,0.015l-0.08,0.014l-0.08,0.012l-0.078,0.011l-0.081,0.009l-0.08,0.007l-0.081,0.005l-0.08,0.003l-0.081,0.002l-0.081,0l-0.08,-0.001l-0.082,-0.004l-0.082,-0.005l-0.081,-0.008l-0.08,-0.008l-0.082,-0.011l-0.082,-0.013l-0.08,-0.014l-0.081,-0.016l-0.081,-0.019l-0.08,-0.02l-0.08,-0.021l-0.081,-0.024l-0.08,-0.026l-0.078,-0.027l-0.083,-0.031l-7.461,-3.008l-0.148,0.104l-0.183,0.127l-0.185,0.126l-0.186,0.124l-0.187,0.123l-0.188,0.122l-0.19,0.12l-0.19,0.118l-0.191,0.117l-0.192,0.116l-0.194,0.114l-0.194,0.113l-0.195,0.111l-0.197,0.109l-0.197,0.109l-0.199,0.106l-0.199,0.105l-0.201,0.103l-0.201,0.102l-0.203,0.1l-0.204,0.098l-0.185,0.087l-1.124,7.946l-0.015,0.089l-0.016,0.082l-0.018,0.081l-0.02,0.081l-0.021,0.081l-0.023,0.079l-0.025,0.078l-0.026,0.078l-0.029,0.078l-0.029,0.076l-0.032,0.075l-0.033,0.075l-0.034,0.074l-0.036,0.072l-0.037,0.072l-0.04,0.071l-0.04,0.07l-0.042,0.068l-0.044,0.069l-0.045,0.066l-0.045,0.065l-0.047,0.065l-0.049,0.063l-0.051,0.063l-0.051,0.061l-0.053,0.06l-0.054,0.06l-0.055,0.057l-0.056,0.056l-0.058,0.055l-0.059,0.055l-0.06,0.052l-0.06,0.051l-0.063,0.051l-0.064,0.049l-0.064,0.048l-0.066,0.046l-0.065,0.044l-0.068,0.044l-0.07,0.042l-0.07,0.041l-0.07,0.039l-0.071,0.037l-0.073,0.037l-0.074,0.034l-0.075,0.034l-0.075,0.031l-0.076,0.03l-0.078,0.028l-0.078,0.027l-0.078,0.025l-0.079,0.023l-0.08,0.021l-0.081,0.02l-0.082,0.018l-0.082,0.016l-0.082,0.014l-0.084,0.013l-0.083,0.011l-0.083,0.008l-0.086,0.007l-0.086,0.005l-0.084,0.003l-0.074,0.001l-13.635,0l-0.073,-0.001l-0.084,-0.003l-0.086,-0.005l-0.086,-0.007l-0.083,-0.008l-0.084,-0.011l-0.083,-0.012l-0.082,-0.015l-0.082,-0.016l-0.082,-0.018l-0.082,-0.02l-0.08,-0.021l-0.079,-0.023l-0.079,-0.025l-0.078,-0.027l-0.077,-0.028l-0.077,-0.03l-0.074,-0.031l-0.076,-0.033l-0.073,-0.035l-0.074,-0.037l-0.071,-0.037l-0.07,-0.039l-0.07,-0.041l-0.07,-0.043l-0.068,-0.043l-0.065,-0.044l-0.066,-0.047l-0.065,-0.048l-0.063,-0.048l-0.064,-0.052l-0.06,-0.051l-0.06,-0.052l-0.059,-0.055l-0.057,-0.055l-0.057,-0.057l-0.055,-0.057l-0.054,-0.059l-0.053,-0.061l-0.051,-0.061l-0.05,-0.063l-0.049,-0.063l-0.047,-0.065l-0.046,-0.065l-0.045,-0.066l-0.043,-0.069l-0.042,-0.068l-0.04,-0.07l-0.039,-0.071l-0.038,-0.072l-0.035,-0.072l-0.035,-0.074l-0.033,-0.075l-0.031,-0.075l-0.03,-0.076l-0.028,-0.077l-0.026,-0.078l-0.024,-0.078l-0.024,-0.079l-0.021,-0.081l-0.019,-0.08l-0.018,-0.082l-0.016,-0.081l-0.015,-0.089l-1.124,-7.944l-0.185,-0.087l-0.205,-0.098l-0.203,-0.101l-0.201,-0.101l-0.201,-0.103l-0.2,-0.105l-0.199,-0.107l-0.198,-0.108l-0.196,-0.109l-0.196,-0.111l-0.195,-0.113l-0.193,-0.114l-0.192,-0.116l-0.192,-0.117l-0.19,-0.118l-0.189,-0.12l-0.188,-0.122l-0.187,-0.123l-0.186,-0.124l-0.185,-0.126l-0.183,-0.127l-0.148,-0.103l-7.459,3.005l-0.082,0.031l-0.078,0.027l-0.081,0.026l-0.08,0.024l-0.08,0.021l-0.081,0.02l-0.08,0.019l-0.082,0.016l-0.08,0.014l-0.081,0.013l-0.083,0.011l-0.079,0.008l-0.081,0.008l-0.083,0.005l-0.081,0.004l-0.08,0.001l-0.082,0l-0.08,-0.002l-0.08,-0.003l-0.082,-0.005l-0.08,-0.007l-0.08,-0.009l-0.078,-0.011l-0.08,-0.012l-0.08,-0.014l-0.077,-0.015l-0.078,-0.017l-0.079,-0.02l-0.077,-0.02l-0.078,-0.023l-0.075,-0.023l-0.075,-0.026l-0.077,-0.027l-0.074,-0.029l-0.074,-0.03l-0.075,-0.033l-0.072,-0.033l-0.072,-0.035l-0.073,-0.038l-0.071,-0.039l-0.069,-0.039l-0.07,-0.043l-0.069,-0.043l-0.067,-0.044l-0.067,-0.047l-0.066,-0.049l-0.066,-0.05l-0.064,-0.051l-0.062,-0.052l-0.062,-0.054l-0.062,-0.057l-0.059,-0.057l-0.059,-0.059l-0.058,-0.061l-0.055,-0.061l-0.055,-0.063l-0.055,-0.065l-0.052,-0.066l-0.051,-0.068l-0.049,-0.068l-0.049,-0.071l-0.046,-0.071l-0.045,-0.072l-0.036,-0.062l-6.816,-11.804l-0.035,-0.063l-0.041,-0.075l-0.038,-0.077l-0.037,-0.076l-0.034,-0.078l-0.033,-0.077l-0.031,-0.078l-0.029,-0.08l-0.027,-0.079l-0.025,-0.079l-0.024,-0.08l-0.021,-0.08l-0.02,-0.081l-0.018,-0.081l-0.016,-0.08l-0.014,-0.082l-0.012,-0.081l-0.011,-0.08l-0.009,-0.082l-0.006,-0.081l-0.006,-0.081l-0.003,-0.081l-0.001,-0.082l0,-0.081l0.002,-0.08l0.004,-0.08l0.005,-0.081l0.008,-0.08l0.009,-0.08l0.01,-0.079l0.013,-0.079l0.014,-0.079l0.016,-0.079l0.017,-0.078l0.02,-0.078l0.02,-0.076l0.023,-0.077l0.024,-0.076l0.026,-0.076l0.027,-0.076l0.029,-0.075l0.031,-0.073l0.032,-0.074l0.034,-0.073l0.036,-0.071l0.036,-0.071l0.039,-0.071l0.041,-0.071l0.042,-0.069l0.043,-0.068l0.045,-0.068l0.046,-0.066l0.048,-0.066l0.051,-0.065l0.051,-0.064l0.052,-0.062l0.054,-0.062l0.056,-0.061l0.057,-0.059l0.058,-0.058l0.061,-0.058l0.062,-0.056l0.062,-0.055l0.07,-0.058l6.328,-4.953l-0.015,-0.165l-0.02,-0.222l-0.018,-0.223l-0.016,-0.225l-0.014,-0.225l-0.012,-0.227l-0.01,-0.228l-0.008,-0.228l-0.006,-0.23l-0.004,-0.231l-0.001,-0.231l0.001,-0.232l0.004,-0.231l0.006,-0.23l0.008,-0.228l0.01,-0.228l0.012,-0.226l0.014,-0.226l0.016,-0.224l0.018,-0.223l0.02,-0.223l0.015,-0.165l-6.326,-4.954l-0.068,-0.056l-0.062,-0.055l-0.062,-0.055l-0.061,-0.058l-0.059,-0.059l-0.057,-0.059l-0.056,-0.061l-0.054,-0.061l-0.053,-0.063l-0.052,-0.064l-0.049,-0.065l-0.049,-0.065l-0.047,-0.068l-0.045,-0.067l-0.043,-0.068l-0.042,-0.069l-0.041,-0.071l-0.038,-0.07l-0.038,-0.072l-0.035,-0.072l-0.034,-0.073l-0.033,-0.073l-0.03,-0.074l-0.029,-0.075l-0.028,-0.075l-0.026,-0.076l-0.024,-0.076l-0.022,-0.077l-0.021,-0.077l-0.019,-0.078l-0.018,-0.078l-0.016,-0.078l-0.014,-0.079l-0.012,-0.08l-0.011,-0.079l-0.009,-0.08l-0.008,-0.08l-0.005,-0.081l-0.004,-0.08l-0.002,-0.08l0,-0.081l0.001,-0.082l0.004,-0.081l0.005,-0.081l0.006,-0.081l0.009,-0.081l0.011,-0.081l0.012,-0.081l0.014,-0.081l0.016,-0.081l0.018,-0.081l0.02,-0.081l0.021,-0.08l0.024,-0.08l0.025,-0.079l0.027,-0.079l0.029,-0.079l0.031,-0.079l0.033,-0.077l0.034,-0.077l0.037,-0.077l0.038,-0.076l0.041,-0.076l0.036,-0.063l6.815,-11.804l0.036,-0.061l0.045,-0.073l0.047,-0.071l0.048,-0.071l0.049,-0.068l0.051,-0.068l0.052,-0.065l0.054,-0.065l0.056,-0.064l0.056,-0.061l0.057,-0.061l0.059,-0.059l0.06,-0.057l0.061,-0.056l0.062,-0.054l0.063,-0.053l0.064,-0.051l0.065,-0.05l0.066,-0.048l0.067,-0.047l0.068,-0.045l0.068,-0.043l0.07,-0.042l0.07,-0.04l0.071,-0.039l0.071,-0.037l0.073,-0.035l0.073,-0.034l0.074,-0.032l0.074,-0.031l0.074,-0.028l0.076,-0.028l0.077,-0.026l0.075,-0.023l0.077,-0.022l0.078,-0.021l0.078,-0.019l0.078,-0.017l0.078,-0.016l0.079,-0.014l0.08,-0.012l0.079,-0.01l0.08,-0.009l0.08,-0.007l0.08,-0.005l0.081,-0.004l0.08,-0.002l0.081,0l0.082,0.002l0.081,0.003l0.08,0.006l0.082,0.007l0.081,0.009l0.082,0.011l0.081,0.012l0.08,0.015l0.082,0.016l0.08,0.018l0.081,0.02l0.08,0.022l0.079,0.023l0.08,0.026l0.08,0.027l0.082,0.031l7.456,3.006l0.147,-0.104l0.184,-0.127l0.185,-0.126l0.186,-0.124l0.187,-0.123l0.188,-0.121l0.189,-0.12l0.19,-0.119l0.191,-0.117l0.193,-0.116l0.193,-0.114l0.195,-0.113l0.196,-0.111l0.196,-0.11l0.198,-0.108l0.199,-0.106l0.2,-0.105l0.201,-0.104l0.202,-0.101l0.203,-0.1l0.204,-0.099l0.188,-0.088l1.124,-7.941l0.015,-0.089l0.016,-0.082l0.018,-0.081l0.019,-0.081l0.021,-0.08l0.023,-0.079l0.025,-0.079l0.026,-0.078l0.028,-0.077l0.03,-0.076l0.031,-0.075l0.033,-0.075l0.034,-0.073l0.036,-0.073l0.038,-0.072l0.039,-0.07l0.04,-0.07l0.042,-0.069l0.043,-0.068l0.045,-0.066l0.046,-0.066l0.047,-0.065l0.049,-0.063l0.05,-0.063l0.051,-0.061l0.053,-0.06l0.054,-0.059l0.055,-0.058l0.056,-0.056l0.058,-0.056l0.059,-0.054l0.06,-0.053l0.061,-0.051l0.062,-0.051l0.064,-0.049l0.064,-0.048l0.066,-0.046l0.066,-0.045l0.068,-0.043l0.069,-0.042l0.07,-0.041l0.071,-0.039l0.072,-0.038l0.073,-0.036l0.073,-0.035l0.074,-0.033l0.076,-0.032l0.077,-0.03l0.077,-0.028l0.078,-0.027l0.078,-0.024l0.08,-0.024l0.081,-0.021l0.081,-0.02l0.081,-0.018l0.082,-0.016l0.083,-0.014l0.083,-0.013l0.084,-0.01l0.084,-0.009l0.085,-0.007l0.085,-0.005l0.085,-0.003l0.074,0l13.634,0l0.074,0Zm-13.697,2.001l-0.039,0.001l-0.04,0.001l-0.039,0.002l-0.039,0.003l-0.039,0.004l-0.038,0.005l-0.039,0.006l-0.038,0.006l-0.037,0.008l-0.038,0.008l-0.037,0.009l-0.036,0.01l-0.037,0.01l-0.036,0.012l-0.036,0.012l-0.035,0.013l-0.035,0.014l-0.034,0.014l-0.035,0.015l-0.033,0.016l-0.034,0.017l-0.033,0.017l-0.032,0.018l-0.032,0.019l-0.032,0.019l-0.031,0.02l-0.031,0.021l-0.03,0.021l-0.029,0.022l-0.03,0.023l-0.028,0.023l-0.028,0.024l-0.028,0.024l-0.027,0.025l-0.027,0.026l-0.026,0.026l-0.025,0.026l-0.025,0.027l-0.024,0.028l-0.024,0.028l-0.023,0.029l-0.023,0.029l-0.021,0.03l-0.022,0.03l-0.02,0.031l-0.02,0.031l-0.019,0.032l-0.019,0.032l-0.018,0.033l-0.017,0.033l-0.016,0.033l-0.016,0.034l-0.015,0.034l-0.015,0.034l-0.013,0.035l-0.013,0.036l-0.012,0.035l-0.011,0.036l-0.011,0.036l-0.01,0.037l-0.008,0.037l-0.009,0.037l-0.007,0.038l-0.006,0.038l-1.276,9.013l-0.195,0.082l-0.193,0.083l-0.192,0.085l-0.192,0.086l-0.19,0.088l-0.19,0.089l-0.188,0.092l-0.188,0.092l-0.187,0.094l-0.186,0.096l-0.185,0.097l-0.184,0.099l-0.183,0.1l-0.183,0.101l-0.181,0.103l-0.18,0.105l-0.18,0.106l-0.178,0.107l-0.178,0.109l-0.176,0.11l-0.176,0.111l-0.175,0.113l-0.174,0.114l-0.172,0.116l-0.172,0.117l-0.171,0.118l-0.17,0.119l-0.169,0.121l-0.168,0.122l-0.167,0.123l-0.166,0.125l-0.165,0.126l-8.466,-3.413l-0.036,-0.014l-0.037,-0.012l-0.036,-0.012l-0.037,-0.011l-0.036,-0.01l-0.037,-0.009l-0.037,-0.008l-0.037,-0.008l-0.037,-0.006l-0.037,-0.006l-0.038,-0.005l-0.037,-0.004l-0.037,-0.003l-0.037,-0.003l-0.037,-0.001l-0.038,-0.001l-0.037,0l-0.037,0.001l-0.037,0.001l-0.037,0.003l-0.037,0.003l-0.037,0.004l-0.036,0.005l-0.037,0.005l-0.036,0.007l-0.036,0.007l-0.036,0.008l-0.036,0.009l-0.036,0.009l-0.035,0.01l-0.036,0.011l-0.035,0.012l-0.034,0.013l-0.035,0.013l-0.034,0.014l-0.034,0.015l-0.033,0.015l-0.034,0.017l-0.032,0.017l-0.033,0.017l-0.032,0.019l-0.032,0.019l-0.032,0.02l-0.031,0.02l-0.03,0.022l-0.03,0.022l-0.03,0.022l-0.029,0.024l-0.029,0.024l-0.029,0.025l-0.027,0.025l-0.028,0.027l-0.026,0.026l-0.027,0.028l-0.025,0.028l-0.026,0.029l-0.024,0.03l-0.024,0.03l-0.023,0.031l-0.023,0.031l-0.022,0.033l-0.022,0.032l-0.02,0.034l-0.021,0.034l-6.805,11.787l-0.019,0.034l-0.019,0.035l-0.018,0.035l-0.017,0.036l-0.015,0.035l-0.016,0.036l-0.014,0.036l-0.013,0.036l-0.012,0.036l-0.012,0.037l-0.011,0.036l-0.01,0.037l-0.009,0.037l-0.008,0.036l-0.007,0.037l-0.007,0.037l-0.005,0.037l-0.005,0.038l-0.004,0.037l-0.003,0.037l-0.002,0.037l-0.002,0.037l-0.001,0.037l0.001,0.037l0,0.037l0.002,0.037l0.003,0.037l0.003,0.037l0.004,0.037l0.005,0.036l0.006,0.037l0.006,0.036l0.008,0.036l0.008,0.036l0.009,0.036l0.009,0.035l0.011,0.036l0.011,0.035l0.012,0.035l0.012,0.034l0.014,0.035l0.014,0.034l0.015,0.034l0.015,0.033l0.017,0.033l0.017,0.033l0.018,0.033l0.018,0.032l0.019,0.031l0.02,0.032l0.021,0.031l0.022,0.03l0.022,0.03l0.022,0.03l0.024,0.029l0.024,0.029l0.025,0.028l0.026,0.028l0.026,0.027l0.027,0.027l0.028,0.026l0.028,0.026l0.029,0.025l0.03,0.025l7.186,5.628l-0.026,0.204l-0.025,0.205l-0.024,0.205l-0.022,0.205l-0.022,0.207l-0.019,0.206l-0.018,0.207l-0.017,0.207l-0.014,0.208l-0.013,0.208l-0.012,0.209l-0.009,0.209l-0.007,0.209l-0.006,0.21l-0.003,0.211l-0.001,0.211l0.001,0.211l0.003,0.21l0.006,0.21l0.007,0.21l0.009,0.209l0.012,0.208l0.013,0.209l0.014,0.207l0.017,0.208l0.018,0.206l0.019,0.207l0.022,0.206l0.022,0.206l0.024,0.205l0.025,0.205l0.026,0.204l-7.186,5.625l-0.03,0.024l-0.029,0.025l-0.028,0.026l-0.028,0.027l-0.027,0.026l-0.026,0.028l-0.026,0.028l-0.025,0.028l-0.024,0.029l-0.024,0.029l-0.022,0.03l-0.022,0.03l-0.022,0.031l-0.021,0.031l-0.02,0.031l-0.019,0.032l-0.018,0.033l-0.018,0.032l-0.017,0.033l-0.017,0.033l-0.015,0.034l-0.015,0.034l-0.014,0.034l-0.014,0.034l-0.012,0.035l-0.012,0.035l-0.011,0.035l-0.011,0.035l-0.009,0.036l-0.009,0.036l-0.008,0.036l-0.008,0.036l-0.006,0.036l-0.006,0.037l-0.005,0.036l-0.004,0.037l-0.003,0.037l-0.003,0.037l-0.002,0.037l0,0.037l-0.001,0.037l0.001,0.037l0.002,0.037l0.002,0.037l0.003,0.038l0.004,0.037l0.005,0.037l0.005,0.037l0.007,0.037l0.007,0.037l0.008,0.037l0.009,0.037l0.01,0.036l0.011,0.037l0.012,0.036l0.012,0.037l0.013,0.036l0.014,0.036l0.016,0.035l0.015,0.036l0.017,0.035l0.018,0.035l0.019,0.035l0.019,0.035l6.805,11.786l0.021,0.034l0.02,0.034l0.022,0.033l0.022,0.032l0.023,0.032l0.023,0.03l0.024,0.031l0.024,0.029l0.026,0.029l0.025,0.028l0.027,0.028l0.026,0.027l0.028,0.026l0.027,0.025l0.029,0.025l0.029,0.024l0.029,0.024l0.03,0.023l0.03,0.022l0.03,0.021l0.031,0.021l0.032,0.019l0.032,0.02l0.032,0.018l0.033,0.018l0.032,0.017l0.034,0.016l0.033,0.016l0.034,0.014l0.034,0.014l0.035,0.014l0.034,0.012l0.035,0.012l0.036,0.011l0.035,0.01l0.036,0.01l0.036,0.009l0.036,0.008l0.036,0.007l0.036,0.006l0.037,0.006l0.036,0.005l0.037,0.004l0.037,0.003l0.037,0.002l0.037,0.002l0.037,0.001l0.037,0l0.038,-0.001l0.037,-0.002l0.037,-0.002l0.037,-0.003l0.037,-0.005l0.038,-0.004l0.037,-0.006l0.037,-0.007l0.037,-0.007l0.037,-0.009l0.037,-0.009l0.036,-0.01l0.037,-0.011l0.036,-0.011l0.037,-0.013l0.036,-0.013l8.469,-3.413l0.165,0.126l0.166,0.124l0.167,0.123l0.168,0.122l0.169,0.121l0.17,0.119l0.171,0.119l0.172,0.116l0.173,0.116l0.173,0.114l0.175,0.113l0.176,0.111l0.176,0.11l0.178,0.109l0.178,0.107l0.18,0.106l0.18,0.104l0.181,0.103l0.182,0.102l0.183,0.1l0.184,0.098l0.185,0.097l0.186,0.096l0.187,0.094l0.187,0.092l0.189,0.091l0.189,0.089l0.191,0.088l0.191,0.086l0.192,0.085l0.193,0.083l0.194,0.081l1.276,9.017l0.006,0.038l0.007,0.037l0.009,0.037l0.008,0.037l0.01,0.037l0.011,0.036l0.011,0.036l0.012,0.036l0.013,0.035l0.013,0.035l0.015,0.035l0.015,0.034l0.016,0.034l0.016,0.033l0.017,0.033l0.018,0.032l0.019,0.032l0.019,0.032l0.02,0.031l0.02,0.031l0.022,0.03l0.021,0.03l0.023,0.029l0.023,0.029l0.024,0.028l0.024,0.028l0.025,0.027l0.025,0.027l0.026,0.026l0.027,0.025l0.027,0.025l0.028,0.025l0.028,0.024l0.028,0.023l0.03,0.022l0.029,0.022l0.03,0.022l0.031,0.02l0.031,0.02l0.032,0.02l0.032,0.018l0.032,0.018l0.033,0.018l0.034,0.016l0.033,0.016l0.035,0.015l0.034,0.015l0.035,0.013l0.035,0.013l0.036,0.012l0.036,0.012l0.037,0.01l0.036,0.01l0.037,0.009l0.038,0.009l0.037,0.007l0.038,0.006l0.039,0.006l0.038,0.005l0.039,0.004l0.039,0.003l0.039,0.002l0.04,0.002l0.039,0l13.611,0l0.04,0l0.039,-0.002l0.039,-0.002l0.039,-0.003l0.039,-0.004l0.038,-0.005l0.038,-0.006l0.038,-0.006l0.038,-0.007l0.037,-0.009l0.037,-0.009l0.037,-0.01l0.036,-0.01l0.036,-0.012l0.036,-0.012l0.035,-0.013l0.035,-0.013l0.035,-0.015l0.034,-0.015l0.033,-0.016l0.034,-0.016l0.033,-0.018l0.032,-0.018l0.032,-0.018l0.032,-0.02l0.031,-0.02l0.031,-0.02l0.03,-0.022l0.03,-0.022l0.029,-0.022l0.029,-0.023l0.028,-0.024l0.028,-0.025l0.027,-0.025l0.026,-0.025l0.026,-0.026l0.026,-0.027l0.025,-0.027l0.024,-0.028l0.024,-0.028l0.023,-0.029l0.022,-0.029l0.022,-0.03l0.022,-0.03l0.02,-0.031l0.02,-0.031l0.019,-0.032l0.019,-0.032l0.018,-0.032l0.017,-0.033l0.017,-0.033l0.016,-0.034l0.015,-0.034l0.014,-0.035l0.014,-0.035l0.013,-0.035l0.012,-0.036l0.011,-0.036l0.01,-0.036l0.01,-0.037l0.009,-0.037l0.008,-0.037l0.008,-0.037l0.006,-0.038l1.276,-9.017l0.194,-0.082l0.192,-0.083l0.192,-0.084l0.191,-0.087l0.19,-0.088l0.189,-0.089l0.189,-0.091l0.187,-0.092l0.186,-0.094l0.186,-0.096l0.185,-0.097l0.184,-0.099l0.183,-0.1l0.182,-0.101l0.181,-0.103l0.18,-0.105l0.179,-0.105l0.179,-0.108l0.177,-0.108l0.177,-0.11l0.175,-0.112l0.175,-0.113l0.174,-0.114l0.172,-0.115l0.172,-0.117l0.171,-0.119l0.17,-0.119l0.169,-0.121l0.168,-0.122l0.167,-0.124l0.166,-0.124l0.165,-0.126l8.473,3.416l0.036,0.013l0.036,0.013l0.037,0.011l0.036,0.011l0.037,0.01l0.037,0.009l0.037,0.009l0.037,0.007l0.037,0.007l0.037,0.006l0.037,0.004l0.037,0.005l0.038,0.003l0.037,0.002l0.037,0.002l0.037,0.001l0.037,0l0.038,-0.001l0.037,-0.002l0.037,-0.002l0.036,-0.003l0.037,-0.004l0.037,-0.005l0.036,-0.006l0.037,-0.006l0.036,-0.007l0.036,-0.008l0.036,-0.009l0.036,-0.01l0.035,-0.01l0.035,-0.011l0.035,-0.012l0.035,-0.012l0.034,-0.014l0.035,-0.014l0.033,-0.014l0.034,-0.016l0.033,-0.016l0.033,-0.017l0.033,-0.018l0.032,-0.018l0.032,-0.02l0.031,-0.019l0.031,-0.021l0.031,-0.021l0.03,-0.022l0.03,-0.023l0.029,-0.024l0.029,-0.024l0.028,-0.025l0.028,-0.025l0.027,-0.026l0.027,-0.027l0.026,-0.028l0.026,-0.028l0.025,-0.029l0.025,-0.029l0.024,-0.031l0.023,-0.03l0.023,-0.032l0.022,-0.032l0.021,-0.033l0.021,-0.034l0.02,-0.034l6.806,-11.786l0.019,-0.035l0.019,-0.035l0.017,-0.035l0.017,-0.035l0.016,-0.036l0.015,-0.035l0.014,-0.036l0.014,-0.036l0.012,-0.037l0.012,-0.036l0.01,-0.037l0.01,-0.036l0.009,-0.037l0.008,-0.037l0.008,-0.037l0.006,-0.037l0.006,-0.037l0.005,-0.037l0.004,-0.037l0.003,-0.038l0.002,-0.037l0.002,-0.037l0,-0.037l0,-0.037l-0.001,-0.037l-0.002,-0.037l-0.002,-0.037l-0.003,-0.037l-0.005,-0.037l-0.005,-0.036l-0.005,-0.037l-0.007,-0.036l-0.007,-0.036l-0.008,-0.036l-0.009,-0.036l-0.01,-0.036l-0.01,-0.035l-0.011,-0.035l-0.012,-0.035l-0.013,-0.035l-0.013,-0.034l-0.014,-0.034l-0.015,-0.034l-0.016,-0.034l-0.016,-0.033l-0.017,-0.033l-0.018,-0.032l-0.018,-0.033l-0.02,-0.032l-0.02,-0.031l-0.02,-0.031l-0.022,-0.031l-0.022,-0.03l-0.023,-0.03l-0.023,-0.029l-0.025,-0.029l-0.024,-0.028l-0.026,-0.028l-0.026,-0.028l-0.027,-0.026l-0.028,-0.027l-0.028,-0.026l-0.029,-0.025l-0.03,-0.024l-7.19,-5.625l0.026,-0.205l0.026,-0.205l0.023,-0.206l0.023,-0.205l0.021,-0.207l0.019,-0.206l0.018,-0.207l0.017,-0.207l0.015,-0.208l0.013,-0.208l0.011,-0.208l0.009,-0.209l0.008,-0.209l0.005,-0.21l0.003,-0.211l0.001,-0.21l-0.001,-0.211l-0.003,-0.211l-0.005,-0.209l-0.008,-0.21l-0.009,-0.209l-0.011,-0.208l-0.013,-0.208l-0.015,-0.208l-0.017,-0.207l-0.018,-0.207l-0.019,-0.206l-0.021,-0.206l-0.023,-0.206l-0.023,-0.205l-0.026,-0.206l-0.026,-0.204l7.19,-5.628l0.03,-0.025l0.029,-0.025l0.028,-0.026l0.028,-0.026l0.027,-0.027l0.026,-0.027l0.026,-0.028l0.024,-0.028l0.025,-0.029l0.023,-0.029l0.023,-0.03l0.022,-0.03l0.022,-0.03l0.02,-0.031l0.02,-0.032l0.02,-0.031l0.018,-0.032l0.018,-0.033l0.017,-0.033l0.016,-0.033l0.016,-0.033l0.015,-0.034l0.014,-0.034l0.013,-0.035l0.013,-0.034l0.012,-0.035l0.011,-0.035l0.01,-0.036l0.01,-0.035l0.009,-0.036l0.008,-0.036l0.007,-0.036l0.007,-0.036l0.005,-0.037l0.005,-0.036l0.005,-0.037l0.003,-0.037l0.002,-0.037l0.002,-0.037l0.001,-0.037l0,-0.037l0,-0.037l-0.002,-0.037l-0.002,-0.037l-0.003,-0.037l-0.004,-0.037l-0.005,-0.038l-0.006,-0.037l-0.006,-0.037l-0.008,-0.037l-0.008,-0.036l-0.009,-0.037l-0.01,-0.037l-0.01,-0.036l-0.012,-0.037l-0.012,-0.036l-0.014,-0.036l-0.014,-0.036l-0.015,-0.036l-0.016,-0.035l-0.017,-0.036l-0.017,-0.035l-0.019,-0.035l-0.019,-0.034l-6.806,-11.787l-0.02,-0.034l-0.021,-0.034l-0.021,-0.032l-0.022,-0.033l-0.023,-0.031l-0.023,-0.031l-0.024,-0.03l-0.025,-0.03l-0.025,-0.029l-0.026,-0.028l-0.026,-0.028l-0.027,-0.026l-0.027,-0.027l-0.028,-0.025l-0.028,-0.025l-0.029,-0.024l-0.029,-0.024l-0.03,-0.022l-0.03,-0.022l-0.031,-0.022l-0.031,-0.02l-0.031,-0.02l-0.032,-0.019l-0.032,-0.019l-0.033,-0.017l-0.033,-0.017l-0.033,-0.017l-0.034,-0.015l-0.033,-0.015l-0.035,-0.014l-0.034,-0.013l-0.035,-0.013l-0.035,-0.012l-0.035,-0.011l-0.035,-0.01l-0.036,-0.009l-0.036,-0.009l-0.036,-0.008l-0.036,-0.007l-0.037,-0.007l-0.036,-0.005l-0.037,-0.005l-0.037,-0.004l-0.036,-0.003l-0.037,-0.003l-0.037,-0.001l-0.038,-0.001l-0.037,0l-0.037,0.001l-0.037,0.001l-0.037,0.003l-0.038,0.003l-0.037,0.004l-0.037,0.005l-0.037,0.006l-0.037,0.006l-0.037,0.008l-0.037,0.008l-0.037,0.009l-0.037,0.01l-0.036,0.011l-0.037,0.012l-0.036,0.012l-0.036,0.014l-8.469,3.413l-0.165,-0.126l-0.167,-0.125l-0.167,-0.123l-0.168,-0.122l-0.169,-0.121l-0.169,-0.119l-0.171,-0.118l-0.172,-0.117l-0.173,-0.115l-0.174,-0.115l-0.174,-0.112l-0.176,-0.112l-0.177,-0.11l-0.177,-0.109l-0.179,-0.107l-0.179,-0.106l-0.18,-0.104l-0.182,-0.103l-0.182,-0.101l-0.183,-0.1l-0.184,-0.099l-0.185,-0.097l-0.185,-0.096l-0.187,-0.093l-0.188,-0.093l-0.188,-0.091l-0.19,-0.089l-0.19,-0.088l-0.191,-0.086l-0.192,-0.084l-0.193,-0.083l-0.194,-0.081l-1.276,-9.017l-0.006,-0.038l-0.008,-0.038l-0.008,-0.037l-0.009,-0.037l-0.01,-0.037l-0.01,-0.036l-0.011,-0.036l-0.012,-0.035l-0.013,-0.036l-0.014,-0.035l-0.014,-0.034l-0.015,-0.034l-0.016,-0.034l-0.017,-0.033l-0.017,-0.033l-0.018,-0.033l-0.019,-0.032l-0.019,-0.032l-0.02,-0.031l-0.02,-0.031l-0.022,-0.03l-0.022,-0.03l-0.022,-0.029l-0.023,-0.029l-0.024,-0.028l-0.024,-0.028l-0.025,-0.027l-0.026,-0.026l-0.026,-0.026l-0.026,-0.026l-0.027,-0.025l-0.028,-0.024l-0.028,-0.024l-0.029,-0.023l-0.029,-0.023l-0.03,-0.022l-0.03,-0.021l-0.031,-0.021l-0.031,-0.02l-0.032,-0.019l-0.032,-0.019l-0.032,-0.018l-0.033,-0.017l-0.034,-0.017l-0.033,-0.016l-0.034,-0.015l-0.035,-0.014l-0.035,-0.014l-0.035,-0.013l-0.036,-0.012l-0.036,-0.012l-0.036,-0.01l-0.037,-0.01l-0.037,-0.009l-0.037,-0.008l-0.038,-0.008l-0.038,-0.006l-0.038,-0.006l-0.038,-0.005l-0.039,-0.004l-0.039,-0.003l-0.039,-0.002l-0.039,-0.001l-0.04,-0.001l-13.611,0Zm6.96,22.118l0.153,0.003l0.153,0.005l0.153,0.007l0.152,0.009l0.151,0.01l0.151,0.013l0.151,0.014l0.149,0.016l0.15,0.018l0.148,0.02l0.149,0.022l0.147,0.023l0.147,0.025l0.146,0.027l0.146,0.029l0.145,0.031l0.144,0.032l0.144,0.034l0.143,0.036l0.143,0.038l0.141,0.039l0.141,0.041l0.14,0.043l0.14,0.044l0.139,0.046l0.137,0.048l0.138,0.049l0.136,0.051l0.136,0.052l0.135,0.055l0.134,0.055l0.133,0.058l0.132,0.058l0.131,0.061l0.131,0.062l0.13,0.063l0.129,0.065l0.128,0.067l0.127,0.068l0.126,0.069l0.125,0.071l0.124,0.073l0.123,0.074l0.123,0.075l0.121,0.077l0.12,0.078l0.119,0.079l0.119,0.081l0.117,0.083l0.116,0.083l0.115,0.085l0.114,0.087l0.114,0.088l0.111,0.089l0.111,0.09l0.11,0.092l0.109,0.093l0.107,0.094l0.106,0.095l0.106,0.097l0.104,0.098l0.102,0.099l0.102,0.101l0.1,0.101l0.1,0.103l0.098,0.104l0.096,0.105l0.096,0.107l0.094,0.107l0.093,0.109l0.092,0.109l0.09,0.111l0.089,0.112l0.088,0.113l0.086,0.114l0.085,0.115l0.084,0.117l0.082,0.117l0.081,0.118l0.08,0.119l0.078,0.121l0.077,0.121l0.075,0.122l0.074,0.124l0.072,0.124l0.071,0.125l0.07,0.126l0.068,0.127l0.066,0.128l0.065,0.129l0.064,0.13l0.062,0.13l0.06,0.132l0.059,0.132l0.057,0.133l0.056,0.134l0.054,0.135l0.053,0.135l0.051,0.137l0.049,0.137l0.047,0.138l0.046,0.139l0.045,0.139l0.042,0.14l0.041,0.141l0.04,0.142l0.037,0.142l0.036,0.143l0.034,0.144l0.033,0.144l0.03,0.146l0.029,0.145l0.027,0.147l0.025,0.146l0.024,0.148l0.022,0.148l0.02,0.149l0.018,0.149l0.016,0.15l0.014,0.15l0.012,0.151l0.011,0.152l0.009,0.152l0.006,0.152l0.005,0.153l0.003,0.154l0.001,0.154l-0.001,0.153l-0.003,0.154l-0.005,0.153l-0.006,0.152l-0.009,0.152l-0.011,0.152l-0.012,0.151l-0.014,0.15l-0.016,0.15l-0.018,0.149l-0.02,0.149l-0.022,0.148l-0.024,0.148l-0.025,0.147l-0.027,0.146l-0.029,0.146l-0.03,0.145l-0.033,0.144l-0.034,0.144l-0.036,0.143l-0.037,0.142l-0.04,0.142l-0.041,0.141l-0.042,0.14l-0.045,0.14l-0.046,0.138l-0.047,0.138l-0.049,0.137l-0.051,0.137l-0.053,0.135l-0.054,0.135l-0.056,0.134l-0.057,0.133l-0.059,0.133l-0.06,0.131l-0.062,0.131l-0.064,0.129l-0.065,0.129l-0.066,0.128l-0.068,0.127l-0.07,0.126l-0.071,0.126l-0.072,0.124l-0.074,0.123l-0.075,0.122l-0.077,0.122l-0.078,0.12l-0.08,0.119l-0.081,0.118l-0.082,0.118l-0.084,0.116l-0.085,0.115l-0.086,0.114l-0.088,0.113l-0.089,0.112l-0.09,0.111l-0.092,0.11l-0.093,0.108l-0.094,0.108l-0.096,0.106l-0.096,0.105l-0.098,0.104l-0.1,0.103l-0.1,0.102l-0.102,0.1l-0.102,0.099l-0.104,0.098l-0.106,0.097l-0.106,0.096l-0.107,0.094l-0.109,0.093l-0.11,0.091l-0.111,0.091l-0.111,0.089l-0.114,0.088l-0.114,0.086l-0.115,0.085l-0.116,0.084l-0.117,0.082l-0.119,0.081l-0.119,0.08l-0.12,0.078l-0.121,0.076l-0.123,0.076l-0.123,0.074l-0.124,0.072l-0.125,0.071l-0.126,0.07l-0.127,0.068l-0.128,0.066l-0.129,0.065l-0.13,0.064l-0.131,0.061l-0.131,0.061l-0.132,0.059l-0.133,0.057l-0.134,0.056l-0.135,0.054l-0.136,0.052l-0.136,0.051l-0.138,0.05l-0.137,0.047l-0.139,0.046l-0.14,0.044l-0.14,0.043l-0.141,0.041l-0.141,0.039l-0.143,0.038l-0.143,0.036l-0.144,0.034l-0.144,0.032l-0.145,0.031l-0.146,0.029l-0.146,0.027l-0.147,0.025l-0.147,0.024l-0.149,0.021l-0.148,0.02l-0.15,0.018l-0.149,0.016l-0.151,0.015l-0.151,0.012l-0.151,0.011l-0.152,0.008l-0.153,0.007l-0.153,0.005l-0.153,0.003l-0.154,0.001l-0.154,-0.001l-0.154,-0.003l-0.153,-0.005l-0.152,-0.007l-0.152,-0.008l-0.151,-0.011l-0.151,-0.012l-0.151,-0.015l-0.15,-0.016l-0.149,-0.018l-0.149,-0.02l-0.148,-0.021l-0.147,-0.024l-0.147,-0.025l-0.147,-0.027l-0.145,-0.029l-0.145,-0.031l-0.145,-0.032l-0.143,-0.034l-0.143,-0.036l-0.143,-0.038l-0.141,-0.039l-0.141,-0.041l-0.141,-0.043l-0.139,-0.044l-0.139,-0.046l-0.138,-0.047l-0.137,-0.05l-0.136,-0.051l-0.136,-0.052l-0.135,-0.054l-0.134,-0.056l-0.133,-0.057l-0.132,-0.059l-0.132,-0.061l-0.13,-0.061l-0.13,-0.064l-0.129,-0.065l-0.128,-0.066l-0.127,-0.068l-0.126,-0.07l-0.125,-0.071l-0.124,-0.072l-0.124,-0.074l-0.122,-0.076l-0.121,-0.076l-0.12,-0.078l-0.12,-0.08l-0.118,-0.081l-0.117,-0.082l-0.117,-0.084l-0.115,-0.085l-0.114,-0.086l-0.113,-0.088l-0.112,-0.089l-0.111,-0.091l-0.109,-0.091l-0.109,-0.093l-0.107,-0.094l-0.107,-0.096l-0.105,-0.097l-0.104,-0.098l-0.103,-0.099l-0.101,-0.1l-0.101,-0.102l-0.099,-0.103l-0.098,-0.104l-0.097,-0.105l-0.095,-0.106l-0.094,-0.108l-0.093,-0.108l-0.092,-0.11l-0.09,-0.111l-0.089,-0.112l-0.088,-0.113l-0.087,-0.114l-0.085,-0.115l-0.083,-0.116l-0.083,-0.118l-0.081,-0.118l-0.079,-0.119l-0.078,-0.12l-0.077,-0.122l-0.075,-0.122l-0.074,-0.123l-0.073,-0.124l-0.071,-0.126l-0.069,-0.126l-0.068,-0.127l-0.067,-0.128l-0.065,-0.129l-0.063,-0.129l-0.062,-0.131l-0.06,-0.131l-0.059,-0.133l-0.058,-0.133l-0.055,-0.134l-0.054,-0.135l-0.053,-0.135l-0.051,-0.137l-0.049,-0.137l-0.048,-0.138l-0.046,-0.138l-0.044,-0.14l-0.043,-0.14l-0.041,-0.141l-0.039,-0.142l-0.038,-0.142l-0.035,-0.143l-0.035,-0.144l-0.032,-0.144l-0.031,-0.145l-0.028,-0.146l-0.028,-0.146l-0.025,-0.147l-0.023,-0.148l-0.022,-0.148l-0.02,-0.149l-0.018,-0.149l-0.016,-0.15l-0.014,-0.15l-0.013,-0.151l-0.01,-0.152l-0.009,-0.152l-0.007,-0.152l-0.005,-0.153l-0.003,-0.154l-0.001,-0.153l0.001,-0.154l0.003,-0.154l0.005,-0.153l0.007,-0.152l0.009,-0.152l0.01,-0.152l0.013,-0.151l0.014,-0.15l0.016,-0.15l0.018,-0.149l0.02,-0.149l0.022,-0.148l0.023,-0.148l0.025,-0.146l0.028,-0.147l0.028,-0.145l0.031,-0.146l0.032,-0.144l0.035,-0.144l0.035,-0.143l0.038,-0.142l0.039,-0.142l0.041,-0.141l0.043,-0.14l0.044,-0.139l0.046,-0.139l0.048,-0.138l0.049,-0.137l0.051,-0.137l0.053,-0.135l0.054,-0.135l0.055,-0.134l0.058,-0.133l0.059,-0.132l0.06,-0.132l0.062,-0.13l0.063,-0.13l0.065,-0.129l0.067,-0.128l0.068,-0.127l0.069,-0.126l0.071,-0.125l0.073,-0.124l0.074,-0.124l0.075,-0.122l0.077,-0.121l0.078,-0.121l0.079,-0.119l0.081,-0.118l0.083,-0.117l0.083,-0.117l0.085,-0.115l0.087,-0.114l0.088,-0.113l0.089,-0.112l0.09,-0.111l0.092,-0.109l0.093,-0.109l0.094,-0.107l0.095,-0.107l0.097,-0.105l0.098,-0.104l0.099,-0.103l0.101,-0.101l0.101,-0.101l0.103,-0.099l0.104,-0.098l0.105,-0.097l0.107,-0.095l0.107,-0.094l0.109,-0.093l0.109,-0.092l0.111,-0.09l0.112,-0.089l0.113,-0.088l0.114,-0.087l0.115,-0.085l0.117,-0.083l0.117,-0.083l0.118,-0.081l0.12,-0.079l0.12,-0.078l0.121,-0.077l0.122,-0.075l0.124,-0.074l0.124,-0.073l0.125,-0.071l0.126,-0.069l0.127,-0.068l0.128,-0.067l0.129,-0.065l0.13,-0.063l0.13,-0.062l0.132,-0.061l0.132,-0.058l0.133,-0.058l0.134,-0.055l0.135,-0.055l0.136,-0.052l0.136,-0.051l0.137,-0.049l0.138,-0.048l0.139,-0.046l0.139,-0.044l0.141,-0.043l0.141,-0.041l0.141,-0.039l0.143,-0.038l0.143,-0.036l0.143,-0.034l0.145,-0.032l0.145,-0.031l0.145,-0.029l0.147,-0.027l0.147,-0.025l0.147,-0.023l0.148,-0.022l0.149,-0.02l0.149,-0.018l0.15,-0.016l0.151,-0.014l0.151,-0.013l0.151,-0.01l0.152,-0.009l0.152,-0.007l0.153,-0.005l0.154,-0.003l0.154,-0.001l0.154,0.001Zm-0.283,2.002l-0.128,0.002l-0.127,0.004l-0.128,0.006l-0.126,0.007l-0.127,0.009l-0.125,0.01l-0.126,0.012l-0.124,0.014l-0.125,0.015l-0.123,0.016l-0.123,0.018l-0.123,0.02l-0.122,0.021l-0.122,0.022l-0.121,0.024l-0.121,0.026l-0.119,0.027l-0.12,0.028l-0.119,0.03l-0.118,0.031l-0.118,0.033l-0.117,0.034l-0.116,0.035l-0.116,0.037l-0.115,0.038l-0.115,0.04l-0.114,0.041l-0.113,0.042l-0.113,0.044l-0.112,0.044l-0.111,0.047l-0.111,0.047l-0.11,0.049l-0.109,0.051l-0.108,0.051l-0.108,0.053l-0.107,0.054l-0.107,0.055l-0.105,0.057l-0.105,0.057l-0.104,0.059l-0.104,0.061l-0.102,0.061l-0.102,0.063l-0.101,0.064l-0.1,0.065l-0.099,0.066l-0.099,0.067l-0.097,0.069l-0.097,0.07l-0.096,0.07l-0.095,0.072l-0.094,0.073l-0.093,0.075l-0.093,0.075l-0.091,0.076l-0.09,0.077l-0.09,0.079l-0.088,0.079l-0.088,0.081l-0.087,0.082l-0.085,0.082l-0.085,0.084l-0.084,0.085l-0.082,0.085l-0.082,0.087l-0.08,0.087l-0.08,0.089l-0.078,0.09l-0.078,0.09l-0.076,0.091l-0.076,0.093l-0.074,0.093l-0.073,0.094l-0.072,0.095l-0.07,0.096l-0.07,0.097l-0.069,0.097l-0.067,0.099l-0.066,0.099l-0.065,0.1l-0.064,0.101l-0.063,0.102l-0.061,0.102l-0.06,0.104l-0.059,0.104l-0.058,0.105l-0.057,0.105l-0.055,0.107l-0.054,0.107l-0.053,0.107l-0.051,0.109l-0.051,0.109l-0.049,0.11l-0.047,0.111l-0.046,0.111l-0.045,0.112l-0.044,0.113l-0.042,0.113l-0.041,0.114l-0.04,0.115l-0.038,0.115l-0.037,0.116l-0.035,0.116l-0.034,0.117l-0.033,0.118l-0.031,0.118l-0.03,0.119l-0.028,0.119l-0.027,0.12l-0.026,0.121l-0.024,0.121l-0.022,0.121l-0.021,0.123l-0.02,0.122l-0.018,0.124l-0.016,0.123l-0.015,0.124l-0.014,0.125l-0.012,0.125l-0.01,0.126l-0.009,0.126l-0.007,0.127l-0.006,0.127l-0.004,0.128l-0.002,0.128l-0.001,0.129l0.001,0.128l0.002,0.128l0.004,0.128l0.006,0.127l0.007,0.127l0.009,0.126l0.01,0.126l0.012,0.125l0.014,0.125l0.015,0.124l0.016,0.124l0.018,0.123l0.02,0.123l0.021,0.122l0.022,0.121l0.024,0.122l0.026,0.12l0.027,0.12l0.028,0.119l0.03,0.119l0.031,0.118l0.033,0.118l0.034,0.117l0.035,0.117l0.037,0.115l0.038,0.116l0.04,0.114l0.041,0.114l0.042,0.114l0.044,0.112l0.045,0.112l0.046,0.112l0.047,0.11l0.049,0.11l0.051,0.109l0.051,0.109l0.053,0.108l0.054,0.107l0.055,0.106l0.057,0.106l0.058,0.105l0.058,0.104l0.061,0.103l0.061,0.103l0.063,0.101l0.064,0.101l0.065,0.1l0.066,0.1l0.067,0.098l0.069,0.098l0.07,0.096l0.07,0.096l0.072,0.095l0.073,0.094l0.074,0.094l0.076,0.092l0.076,0.091l0.078,0.091l0.078,0.089l0.08,0.089l0.08,0.087l0.082,0.087l0.082,0.086l0.084,0.084l0.085,0.084l0.085,0.083l0.087,0.081l0.088,0.081l0.088,0.079l0.09,0.079l0.09,0.077l0.092,0.077l0.092,0.075l0.093,0.074l0.094,0.073l0.095,0.072l0.096,0.071l0.096,0.069l0.098,0.069l0.099,0.068l0.099,0.066l0.1,0.065l0.101,0.063l0.102,0.063l0.102,0.061l0.104,0.061l0.104,0.059l0.105,0.058l0.105,0.056l0.107,0.056l0.107,0.054l0.107,0.052l0.109,0.052l0.109,0.05l0.11,0.049l0.111,0.048l0.111,0.046l0.112,0.045l0.113,0.043l0.113,0.043l0.114,0.04l0.115,0.04l0.115,0.038l0.116,0.037l0.116,0.036l0.117,0.034l0.118,0.032l0.118,0.031l0.119,0.03l0.12,0.029l0.119,0.027l0.121,0.025l0.121,0.024l0.122,0.022l0.122,0.022l0.123,0.019l0.123,0.018l0.123,0.017l0.125,0.015l0.125,0.013l0.125,0.012l0.125,0.01l0.126,0.009l0.128,0.007l0.127,0.006l0.127,0.004l0.128,0.002l0.129,0.001l0.128,-0.001l0.129,-0.002l0.127,-0.004l0.127,-0.006l0.127,-0.007l0.127,-0.009l0.125,-0.01l0.125,-0.012l0.125,-0.013l0.124,-0.015l0.124,-0.017l0.123,-0.018l0.123,-0.019l0.122,-0.022l0.122,-0.022l0.121,-0.024l0.12,-0.025l0.12,-0.027l0.12,-0.029l0.118,-0.03l0.118,-0.031l0.119,-0.032l0.116,-0.034l0.117,-0.036l0.116,-0.037l0.115,-0.038l0.115,-0.04l0.114,-0.04l0.113,-0.043l0.113,-0.043l0.112,-0.045l0.111,-0.046l0.11,-0.048l0.11,-0.049l0.11,-0.05l0.108,-0.052l0.108,-0.052l0.107,-0.054l0.107,-0.056l0.105,-0.056l0.105,-0.058l0.104,-0.059l0.104,-0.061l0.102,-0.061l0.102,-0.062l0.101,-0.064l0.1,-0.065l0.099,-0.066l0.098,-0.068l0.098,-0.069l0.097,-0.069l0.096,-0.071l0.095,-0.072l0.094,-0.073l0.093,-0.074l0.092,-0.075l0.092,-0.077l0.09,-0.077l0.09,-0.079l0.088,-0.079l0.088,-0.081l0.086,-0.081l0.086,-0.083l0.085,-0.084l0.083,-0.084l0.083,-0.086l0.082,-0.087l0.08,-0.087l0.08,-0.089l0.078,-0.089l0.078,-0.091l0.076,-0.091l0.075,-0.092l0.074,-0.094l0.073,-0.094l0.072,-0.094l0.071,-0.097l0.07,-0.096l0.068,-0.098l0.068,-0.098l0.066,-0.1l0.065,-0.1l0.064,-0.101l0.062,-0.101l0.062,-0.103l0.06,-0.103l0.059,-0.104l0.058,-0.105l0.057,-0.106l0.055,-0.106l0.054,-0.107l0.053,-0.108l0.051,-0.109l0.05,-0.109l0.049,-0.11l0.048,-0.11l0.046,-0.112l0.045,-0.112l0.044,-0.112l0.042,-0.114l0.041,-0.114l0.039,-0.114l0.039,-0.115l0.036,-0.116l0.036,-0.117l0.034,-0.117l0.033,-0.118l0.031,-0.118l0.03,-0.119l0.028,-0.119l0.027,-0.12l0.025,-0.12l0.024,-0.122l0.023,-0.121l0.021,-0.122l0.019,-0.123l0.018,-0.123l0.017,-0.124l0.015,-0.124l0.013,-0.125l0.012,-0.125l0.011,-0.126l0.008,-0.126l0.008,-0.127l0.005,-0.127l0.004,-0.128l0.003,-0.128l0.001,-0.128l-0.001,-0.129l-0.003,-0.128l-0.004,-0.128l-0.005,-0.127l-0.008,-0.127l-0.008,-0.126l-0.011,-0.126l-0.012,-0.125l-0.013,-0.125l-0.015,-0.124l-0.017,-0.124l-0.018,-0.123l-0.019,-0.122l-0.021,-0.123l-0.023,-0.121l-0.024,-0.121l-0.025,-0.121l-0.027,-0.12l-0.028,-0.119l-0.03,-0.119l-0.031,-0.118l-0.033,-0.118l-0.034,-0.117l-0.036,-0.116l-0.036,-0.116l-0.039,-0.115l-0.039,-0.115l-0.041,-0.114l-0.042,-0.113l-0.044,-0.113l-0.045,-0.112l-0.046,-0.111l-0.048,-0.111l-0.049,-0.11l-0.05,-0.109l-0.051,-0.109l-0.053,-0.107l-0.054,-0.107l-0.055,-0.107l-0.057,-0.105l-0.058,-0.105l-0.059,-0.104l-0.06,-0.104l-0.062,-0.102l-0.062,-0.102l-0.064,-0.101l-0.065,-0.1l-0.066,-0.099l-0.068,-0.099l-0.068,-0.097l-0.07,-0.097l-0.071,-0.096l-0.072,-0.095l-0.073,-0.094l-0.074,-0.093l-0.075,-0.093l-0.076,-0.091l-0.078,-0.09l-0.078,-0.09l-0.08,-0.089l-0.08,-0.087l-0.082,-0.087l-0.083,-0.085l-0.083,-0.085l-0.085,-0.084l-0.086,-0.082l-0.086,-0.082l-0.088,-0.081l-0.089,-0.079l-0.089,-0.079l-0.09,-0.077l-0.092,-0.076l-0.092,-0.076l-0.093,-0.074l-0.094,-0.073l-0.095,-0.072l-0.096,-0.07l-0.097,-0.07l-0.098,-0.069l-0.098,-0.067l-0.099,-0.066l-0.1,-0.065l-0.101,-0.064l-0.102,-0.063l-0.103,-0.061l-0.103,-0.061l-0.104,-0.059l-0.105,-0.057l-0.105,-0.057l-0.107,-0.055l-0.107,-0.054l-0.108,-0.053l-0.108,-0.051l-0.11,-0.051l-0.11,-0.049l-0.11,-0.047l-0.112,-0.047l-0.111,-0.044l-0.113,-0.044l-0.114,-0.042l-0.114,-0.041l-0.114,-0.04l-0.115,-0.038l-0.116,-0.037l-0.117,-0.035l-0.117,-0.034l-0.117,-0.033l-0.119,-0.031l-0.118,-0.03l-0.12,-0.028l-0.12,-0.027l-0.12,-0.026l-0.121,-0.024l-0.122,-0.022l-0.122,-0.021l-0.123,-0.02l-0.123,-0.018l-0.124,-0.016l-0.124,-0.015l-0.125,-0.014l-0.125,-0.012l-0.126,-0.01l-0.126,-0.009l-0.127,-0.007l-0.127,-0.006l-0.127,-0.004l-0.129,-0.002l-0.128,-0.001l-0.129,0.001Z" style="fill:#2196f3;"/></g></svg>