<?xml version="1.0" encoding="UTF-8" standalone="no"?><!DOCTYPE svg PUBLIC "-//W3C//DTD SVG 1.1//EN" "http://www.w3.org/Graphics/SVG/1.1/DTD/svg11.dtd"><svg width="100%" height="100%" viewBox="0 0 1067 1067" version="1.1" xmlns="http://www.w3.org/2000/svg" xmlns:xlink="http://www.w3.org/1999/xlink" xml:space="preserve" style="fill-rule:evenodd;clip-rule:evenodd;stroke-linejoin:round;stroke-miterlimit:1.41421;"><rect id="Articles" x="2.358" y="1.042" width="1062.5" height="1062.5" style="fill:none;"/><g><path d="M794.286,375.717c-10.489,10.49 -20.979,20.98 -21.195,31.255c-0.214,10.274 9.843,20.331 19.9,30.39c14.791,14.791 29.582,29.583 29.005,44.955c-0.58,15.371 -16.53,31.321 -32.482,47.27l-129.647,129.65l-44.374,-44.378l133.123,-133.123l-30.17,-30.171l-44.415,44.42l-117.667,-117.666l120.256,-120.269c12.268,-12.271 32.131,-12.271 44.368,0l73.298,73.298c12.269,12.235 12.269,32.098 0,44.369Z" style="fill:#ffc107;"/><path d="M238.679,695.987l300.108,-300.09l117.666,117.666l-300.107,300.09l-117.667,0l0,-117.666Z" style="fill:#2196f3;"/><path d="M379.719,813.653l442.293,0l0,-24.764l-417.493,0l-24.8,24.764" style="fill:#ffc107;"/></g></svg>