<?xml version="1.0" encoding="UTF-8" standalone="no"?><!DOCTYPE svg PUBLIC "-//W3C//DTD SVG 1.1//EN" "http://www.w3.org/Graphics/SVG/1.1/DTD/svg11.dtd"><svg width="100%" height="100%" viewBox="0 0 1067 1067" version="1.1" xmlns="http://www.w3.org/2000/svg" xmlns:xlink="http://www.w3.org/1999/xlink" xml:space="preserve" style="fill-rule:evenodd;clip-rule:evenodd;stroke-linejoin:round;stroke-miterlimit:1.41421;"><rect id="chat" x="1.808" y="1.042" width="1062.5" height="1062.5" style="fill:none;"/><g><path d="M754.298,435.779c0,-35.501 -28.822,-64.323 -64.324,-64.323l-257.359,0c-35.501,0 -64.324,28.822 -64.324,64.323l0,128.648c0,35.501 28.823,64.324 64.324,64.324l257.359,0c35.502,0 64.324,-28.823 64.324,-64.324l0,-128.648Z" style="fill:#fff;"/><path d="M740.895,267.631c30.54,0.002 55.364,21.436 55.498,47.945c-5.383,-1.921 -11.231,-2.974 -17.347,-2.974l-429.994,0c-26.61,0.002 -48.211,19.949 -48.211,44.519l0,303.584c0,10.513 3.954,20.179 10.564,27.799l-70.013,60.757l0.305,-433.467c0,-26.609 24.557,-48.161 55.195,-48.163l444.003,0Z" style="fill:#2196f3;"/><path id="message.-reply.-text" d="M722.772,467.735l-305.382,0l0,-46.926l305.382,0l0,46.926Zm0,70.609l-305.382,0l0,-47.072l305.382,0l0,47.072Zm0,70.462l-305.382,0l0,-46.925l305.382,0l0,46.925Zm101.698,-235.07c0,-25.828 -22.753,-46.926 -50.722,-46.926l-407.335,0c-27.97,0 -50.817,21.098 -50.817,46.926l0,282.143c0,25.83 22.847,46.927 50.817,46.927l356.359,0l101.953,94.146l-0.255,-423.216Z" style="fill:#ffc107;fill-rule:nonzero;"/></g></svg>