<?xml version="1.0" encoding="UTF-8" standalone="no"?><!DOCTYPE svg PUBLIC "-//W3C//DTD SVG 1.1//EN" "http://www.w3.org/Graphics/SVG/1.1/DTD/svg11.dtd"><svg width="100%" height="100%" viewBox="0 0 255 255" version="1.1" xmlns="http://www.w3.org/2000/svg" xmlns:xlink="http://www.w3.org/1999/xlink" xml:space="preserve" style="fill-rule:evenodd;clip-rule:evenodd;stroke-linejoin:round;stroke-miterlimit:1.41421;"><rect id="Communities" x="0" y="0" width="255" height="255" style="fill:none;"/><g><path id="people" class="app-menu-icon-primary-color" d="M82.34,169.613c3.221,0 5.833,2.611 5.833,5.833c0,3.221 -2.612,5.832 -5.833,5.832c-3.221,0 -5.832,-2.611 -5.832,-5.832c0,-3.222 2.611,-5.833 5.832,-5.833Zm0,15.554c7.516,0 13.61,2.611 13.61,5.832l0,5.833l-27.219,0l0,-5.833c0,-3.221 6.093,-5.832 13.609,-5.832Z" style="fill:#2196f3;fill-rule:nonzero;"/><path id="people1" class="app-menu-icon-primary-color" d="M163.926,150.906c5.183,0 9.385,4.202 9.385,9.385c0,5.183 -4.202,9.385 -9.385,9.385c-5.184,0 -9.386,-4.202 -9.386,-9.385c0,-5.183 4.202,-9.385 9.386,-9.385Zm25.027,0c5.183,0 9.385,4.202 9.385,9.385c0,5.183 -4.202,9.385 -9.385,9.385c-5.183,0 -9.385,-4.202 -9.385,-9.385c0,-5.183 4.202,-9.385 9.385,-9.385Zm-25.027,25.027c12.094,0 21.899,4.202 21.899,9.386l0,9.385l-43.798,0l0,-9.385c0,-5.184 9.804,-9.386 21.899,-9.386Zm25.027,0c12.095,0 21.899,4.202 21.899,9.386l0,9.385l-18.77,0l0,-9.385c0,-3.496 -2.065,-6.724 -5.553,-9.329l2.424,-0.057Z" style="fill:#2196f3;fill-rule:nonzero;"/><path id="people2" class="app-menu-icon-accent-color" d="M60.807,83.88c5.183,0 9.385,4.202 9.385,9.385c0,5.184 -4.202,9.386 -9.385,9.386c-5.184,0 -9.385,-4.202 -9.385,-9.386c0,-5.183 4.201,-9.385 9.385,-9.385Zm25.027,0c5.183,0 9.386,4.202 9.386,9.385c0,5.184 -4.203,9.386 -9.386,9.386c-5.183,0 -9.385,-4.202 -9.385,-9.386c0,-5.183 4.202,-9.385 9.385,-9.385Zm-25.027,25.028c12.094,0 21.899,4.201 21.899,9.385l0,9.385l-43.798,0l0,-9.385c0,-5.184 9.804,-9.385 21.899,-9.385Zm25.027,0c12.095,0 21.899,4.201 21.899,9.385l0,9.385l-18.77,0l0,-9.385c0,-3.496 -2.064,-6.724 -5.553,-9.328l2.424,-0.057Z" style="fill:#ffc107;fill-rule:nonzero;"/><path d="M82.34,154.097c13.768,0 24.946,11.178 24.946,24.946c0,13.768 -11.178,24.946 -24.946,24.946c-13.768,0 -24.945,-11.178 -24.945,-24.946c0,-13.768 11.177,-24.946 24.945,-24.946Zm-0.114,8.321c9.113,0 16.511,7.398 16.511,16.511c0,9.113 -7.398,16.511 -16.511,16.511c-9.113,0 -16.511,-7.398 -16.511,-16.511c0,-9.113 7.398,-16.511 16.511,-16.511Z" style="fill:#e0e0e0;"/><path class="app-menu-icon-accent-color" d="M176.439,99.951c31.059,0 56.275,25.215 56.275,56.274c0,31.059 -25.216,56.275 -56.275,56.275c-31.058,0 -56.274,-25.216 -56.274,-56.275c0,-31.059 25.216,-56.274 56.274,-56.274Zm-0.257,18.77c20.557,0 37.247,16.69 37.247,37.247c0,20.557 -16.69,37.247 -37.247,37.247c-20.557,0 -37.247,-16.69 -37.247,-37.247c0,-20.557 16.69,-37.247 37.247,-37.247Z" style="fill:#ffc107;"/><path class="app-menu-icon-primary-color" d="M73.321,42.5c28.166,0 51.034,22.868 51.034,51.035c0,28.166 -22.868,51.034 -51.034,51.034c-28.167,0 -51.035,-22.868 -51.035,-51.034c0,-28.167 22.868,-51.035 51.035,-51.035Zm-0.234,17.022c18.643,0 33.779,15.136 33.779,33.779c0,18.643 -15.136,33.779 -33.779,33.779c-18.643,0 -33.779,-15.136 -33.779,-33.779c0,-18.643 15.136,-33.779 33.779,-33.779Z" style="fill:#2196f3;"/></g></svg>