<?xml version="1.0" encoding="UTF-8" standalone="no"?><!DOCTYPE svg PUBLIC "-//W3C//DTD SVG 1.1//EN" "http://www.w3.org/Graphics/SVG/1.1/DTD/svg11.dtd"><svg width="100%" height="100%" viewBox="0 0 255 255" version="1.1" xmlns="http://www.w3.org/2000/svg" xmlns:xlink="http://www.w3.org/1999/xlink" xml:space="preserve" style="fill-rule:evenodd;clip-rule:evenodd;stroke-linejoin:round;stroke-miterlimit:1.41421;"><rect id="Unified-Inbox" x="0" y="0" width="255" height="255" style="fill:none;"/><clipPath id="_clip1"><rect id="Unified-Inbox1" x="0" y="0" width="255" height="255"/></clipPath><g clip-path="url(#_clip1)"><g><path id="email.-open" d="M67.5,110.098l60,37.492l60,-37.492l0,-0.008l-60,-37.492l-60,37.492l0,0.008Zm135,-0.008l0,75c0,8.284 -6.715,15 -15,15l-120,0c-8.284,0 -15,-6.716 -15,-15l0,-75c0,-5.457 2.914,-10.233 7.271,-12.858l67.729,-42.322l67.73,42.322c4.356,2.625 7.27,7.401 7.27,12.858Z" style="fill:#2196f3;fill-rule:nonzero;"/><path d="M172.721,71.25l0,48.529l-45.221,27.787l-45.956,-28.522l0,-47.794l91.177,0Z" style="fill:#ffc107;"/></g><rect x="96.321" y="84.457" width="62.359" height="7.039" style="fill:#fff;"/><rect x="96.321" y="98.502" width="62.359" height="7.24" style="fill:#fff;"/><rect x="96.321" y="112.749" width="49.951" height="7.24" style="fill:#fff;"/></g></svg>