<?xml version="1.0" encoding="UTF-8" standalone="no"?><!DOCTYPE svg PUBLIC "-//W3C//DTD SVG 1.1//EN" "http://www.w3.org/Graphics/SVG/1.1/DTD/svg11.dtd"><svg width="100%" height="100%" viewBox="0 0 1067 1067" version="1.1" xmlns="http://www.w3.org/2000/svg" xmlns:xlink="http://www.w3.org/1999/xlink" xml:space="preserve" style="fill-rule:evenodd;clip-rule:evenodd;stroke-linejoin:round;stroke-miterlimit:1.41421;"><rect id="Logout" x="2.358" y="0.521" width="1062.5" height="1062.5" style="fill:none;"/><path id="logout" d="M685.951,695.833l0,-101.562l-218.748,0l0,-125.001l218.748,0l0,-101.562l164.062,164.063l-164.062,164.062Zm-124.997,-476.562c34.518,0 62.5,27.982 62.5,62.5l0,124.999l-62.5,0l0,-124.999l-281.251,0.001l0,499.999l281.251,0l0,-125l62.5,0l0,125c0,34.519 -27.982,62.5 -62.5,62.5l-281.251,0c-34.517,0 -62.5,-27.981 -62.5,-62.5l0,-499.999c0,-34.518 27.983,-62.5 62.5,-62.5l281.251,-0.001Z" style="fill:#2196f3;fill-rule:nonzero;"/><clipPath id="_clip1"><path d="M685.951,695.833l0,-101.562l-218.748,0l0,-125.001l218.748,0l0,-101.562l164.062,164.063l-164.062,164.062Zm-124.997,-476.562c34.518,0 62.5,27.982 62.5,62.5l0,124.999l-62.5,0l0,-124.999l-281.251,0.001l0,499.999l281.251,0l0,-125l62.5,0l0,125c0,34.519 -27.982,62.5 -62.5,62.5l-281.251,0c-34.517,0 -62.5,-27.981 -62.5,-62.5l0,-499.999c0,-34.518 27.983,-62.5 62.5,-62.5l281.251,-0.001Z" clip-rule="nonzero"/></clipPath><g clip-path="url(#_clip1)"><path d="M446.361,448.975l226.131,-3.561l0,-104.163l195.327,190.52l-188.205,186.959l-7.122,-100.602l-215.448,-7.122l-10.683,-162.031Z" style="fill:#ffc107;"/></g></svg>