<?xml version="1.0" encoding="UTF-8" standalone="no"?><!DOCTYPE svg PUBLIC "-//W3C//DTD SVG 1.1//EN" "http://www.w3.org/Graphics/SVG/1.1/DTD/svg11.dtd"><svg width="100%" height="100%" viewBox="0 0 1063 1067" version="1.1" xmlns="http://www.w3.org/2000/svg" xmlns:xlink="http://www.w3.org/1999/xlink" xml:space="preserve" style="fill-rule:evenodd;clip-rule:evenodd;stroke-linejoin:round;stroke-miterlimit:1.41421;"><rect id="Search" x="0" y="0.521" width="1062.5" height="1062.5" style="fill:none;"/><path id="magnify" class="app-menu-icon-primary-color" d="M450.893,219.271c128.211,0 232.143,103.934 232.143,232.143c0,57.675 -21.036,110.439 -55.85,151.039l9.675,9.675l28.318,0l178.571,178.571l-53.571,53.572l-178.572,-178.572l0,-28.317l-9.675,-9.675c-40.6,34.814 -93.364,55.85 -151.039,55.85c-128.209,0 -232.143,-103.933 -232.143,-232.143c0,-128.209 103.934,-232.143 232.143,-232.143Zm0,71.429c-88.76,0 -160.714,71.954 -160.714,160.714c0,88.76 71.954,160.714 160.714,160.714c88.761,0 160.714,-71.954 160.714,-160.714c0,-88.76 -71.953,-160.714 -160.714,-160.714Z" style="fill:#2196f3;fill-rule:nonzero;"/><clipPath id="_clip1"><path d="M450.893,219.271c128.211,0 232.143,103.934 232.143,232.143c0,57.675 -21.036,110.439 -55.85,151.039l9.675,9.675l28.318,0l178.571,178.571l-53.571,53.572l-178.572,-178.572l0,-28.317l-9.675,-9.675c-40.6,34.814 -93.364,55.85 -151.039,55.85c-128.209,0 -232.143,-103.933 -232.143,-232.143c0,-128.209 103.934,-232.143 232.143,-232.143Zm0,71.429c-88.76,0 -160.714,71.954 -160.714,160.714c0,88.76 71.954,160.714 160.714,160.714c88.761,0 160.714,-71.954 160.714,-160.714c0,-88.76 -71.953,-160.714 -160.714,-160.714Z" clip-rule="nonzero"/></clipPath><g clip-path="url(#_clip1)"><path class="app-menu-icon-accent-color" d="M688.539,541.918l151.569,167.853l78.399,-68.582l-14.789,272.455l-264.632,-18.556l71.028,-71.599l-136.493,-166.846l114.918,-114.725Z" style="fill:#ffc107;"/></g></svg>