<?xml version="1.0" encoding="UTF-8" standalone="no"?><!DOCTYPE svg PUBLIC "-//W3C//DTD SVG 1.1//EN" "http://www.w3.org/Graphics/SVG/1.1/DTD/svg11.dtd"><svg width="100%" height="100%" viewBox="0 0 1067 1067" version="1.1" xmlns="http://www.w3.org/2000/svg" xmlns:xlink="http://www.w3.org/1999/xlink" xml:space="preserve" style="fill-rule:evenodd;clip-rule:evenodd;stroke-linejoin:round;stroke-miterlimit:1.41421;"><rect id="Ticketing" x="2.175" y="1.042" width="1062.5" height="1062.5" style="fill:none;"/><path id="library.-books" class="app-menu-icon-primary-color" d="M752.175,376.042l-312.5,0l0,-62.5l312.5,0m-125,312.5l-187.5,0l0,-62.5l187.5,0m125,-62.5l-312.5,0l0,-62.5l312.5,0m31.25,-218.75l-375,0c-34.375,0 -62.5,28.125 -62.5,62.5l0,375c0,34.375 28.125,62.5 62.5,62.5l375,0c34.375,0 62.5,-28.125 62.5,-62.5l0,-375c0,-34.375 -28.125,-62.5 -62.5,-62.5Zm-500,125l-62.5,0l0,437.5c0,34.375 28.125,62.5 62.5,62.5l437.5,0l0,-62.5l-437.5,0l0,-437.5Z" style="fill:#2196f3;fill-rule:nonzero;"/><clipPath id="_clip1"><path d="M752.175,376.042l-312.5,0l0,-62.5l312.5,0m-125,312.5l-187.5,0l0,-62.5l187.5,0m125,-62.5l-312.5,0l0,-62.5l312.5,0m31.25,-218.75l-375,0c-34.375,0 -62.5,28.125 -62.5,62.5l0,375c0,34.375 28.125,62.5 62.5,62.5l375,0c34.375,0 62.5,-28.125 62.5,-62.5l0,-375c0,-34.375 -28.125,-62.5 -62.5,-62.5Zm-500,125l-62.5,0l0,437.5c0,34.375 28.125,62.5 62.5,62.5l437.5,0l0,-62.5l-437.5,0l0,-437.5Z" clip-rule="nonzero"/></clipPath><g clip-path="url(#_clip1)"><path class="app-menu-icon-accent-color" d="M191.483,321.875l133.334,0l0,445.833l433.333,0l0,150l-566.667,0l0,-595.833Z" style="fill:#ffc107;"/></g></svg>