<?xml version="1.0" encoding="UTF-8" standalone="no"?><!DOCTYPE svg PUBLIC "-//W3C//DTD SVG 1.1//EN" "http://www.w3.org/Graphics/SVG/1.1/DTD/svg11.dtd"><svg width="100%" height="100%" viewBox="0 0 1067 1067" version="1.1" xmlns="http://www.w3.org/2000/svg" xmlns:xlink="http://www.w3.org/1999/xlink" xml:space="preserve" style="fill-rule:evenodd;clip-rule:evenodd;stroke-linejoin:round;stroke-miterlimit:1.41421;"><rect id="VisioConf" x="1.992" y="1.042" width="1062.5" height="1062.5" style="fill:none;"/><g><g><path d="M828.381,796.875l-590.278,0c-30.907,0 -59.028,-28.121 -59.028,-59.028l0,-413.194c0,-30.907 28.121,-59.028 59.028,-59.028l590.278,0c30.907,0 59.027,28.121 59.027,59.028l0,413.194c0,30.906 -28.119,59.026 -59.027,59.028Z" style="fill:#2196f3;"/><path id="account" d="M590.362,301.194c63.862,0 115.635,51.772 115.635,115.634c0,63.862 -51.773,115.635 -115.635,115.635c-63.863,0 -115.634,-51.773 -115.634,-115.635c0,-63.862 51.771,-115.634 115.634,-115.634Zm0,289.086c127.727,0 231.269,51.772 231.269,115.634l0,57.817l-462.537,0l0,-57.817c0,-63.862 103.542,-115.634 231.268,-115.634Z" style="fill:#fff;fill-rule:nonzero;"/></g></g><g><path d="M827.175,797.917l-590.278,0c-30.907,0 -59.028,-28.121 -59.028,-59.028l0,-413.195c0,-30.907 28.121,-59.027 59.028,-59.027l590.278,0c30.907,0 59.028,28.12 59.028,59.027l0,413.195c0,30.906 -28.119,59.026 -59.028,59.028Z" style="fill:#2196f3;"/><path id="account1" d="M485.529,351c49.72,0 90.028,40.307 90.028,90.028c0,49.72 -40.308,90.027 -90.028,90.027c-49.721,0 -90.028,-40.307 -90.028,-90.027c0,-49.721 40.307,-90.028 90.028,-90.028Zm0,225.069c99.443,0 180.056,40.308 180.056,90.028l0,45.014l-360.111,0l0,-45.014c0,-49.72 80.613,-90.028 180.055,-90.028Z" style="fill:#fff;fill-rule:nonzero;"/></g><path id="play.-circle.-outline" d="M619.22,651.25c-66.165,0 -120,-53.835 -120,-120c0,-66.165 53.835,-120 120,-120c66.165,0 120,53.835 120,120c0,66.165 -53.835,120 -120,120Zm0,-270c-82.845,0 -150,67.155 -150,150c0,82.845 67.155,150 150,150c82.845,0 150,-67.155 150,-150c0,-82.845 -67.155,-150 -150,-150Zm-30,217.5l90,-67.5l-90,-67.5l0,135Z" style="fill:#ffc107;fill-rule:nonzero;"/><path d="M620.242,372.92l1.022,0.01l1.021,0.016l1.018,0.022l1.016,0.029l1.016,0.036l1.013,0.041l1.012,0.048l1.012,0.055l1.009,0.061l1.007,0.067l1.005,0.073l1.004,0.079l1.004,0.086l1,0.093l0.997,0.098l0.998,0.104l0.995,0.111l0.993,0.116l0.992,0.123l0.989,0.129l0.988,0.135l0.987,0.142l0.983,0.147l0.981,0.153l0.98,0.159l0.978,0.165l0.976,0.171l0.975,0.177l0.971,0.183l0.97,0.189l0.968,0.195l0.964,0.201l0.964,0.206l0.961,0.213l0.96,0.218l0.957,0.224l0.954,0.23l0.953,0.236l0.949,0.241l0.948,0.247l0.946,0.252l0.943,0.259l0.94,0.264l0.938,0.269l0.937,0.276l0.935,0.281l0.931,0.286l0.928,0.292l0.926,0.298l0.924,0.303l0.92,0.308l0.92,0.314l0.916,0.32l0.914,0.325l0.911,0.33l0.909,0.336l0.905,0.341l0.903,0.347l0.901,0.352l0.898,0.357l0.895,0.363l0.892,0.367l0.89,0.373l0.887,0.379l0.884,0.383l0.88,0.389l0.879,0.393l0.877,0.4l0.872,0.404l0.869,0.409l0.867,0.415l0.864,0.419l0.862,0.425l0.857,0.43l0.855,0.434l0.853,0.44l0.849,0.445l0.846,0.45l0.842,0.454l0.84,0.459l0.837,0.465l0.834,0.469l0.831,0.475l0.827,0.479l0.824,0.483l0.821,0.489l0.818,0.494l0.814,0.498l0.811,0.503l0.808,0.508l0.805,0.512l0.801,0.517l0.799,0.522l0.795,0.527l0.79,0.531l0.788,0.536l0.784,0.54l0.782,0.545l0.778,0.549l0.774,0.554l0.77,0.558l0.768,0.564l0.763,0.568l0.76,0.571l0.757,0.577l0.752,0.58l0.75,0.586l0.746,0.59l0.742,0.594l0.738,0.598l0.735,0.602l0.732,0.608l0.727,0.612l0.723,0.614l0.72,0.62l0.716,0.624l0.712,0.628l0.709,0.633l0.705,0.637l0.701,0.641l0.696,0.645l0.693,0.648l0.689,0.653l0.685,0.658l0.681,0.661l0.678,0.665l0.673,0.669l0.669,0.673l0.666,0.678l0.662,0.682l0.656,0.684l0.653,0.689l0.65,0.694l0.645,0.697l0.64,0.701l0.637,0.704l0.632,0.709l0.629,0.712l0.623,0.716l0.62,0.719l0.616,0.725l0.611,0.727l0.608,0.731l0.602,0.735l0.598,0.737l0.594,0.743l0.59,0.746l0.585,0.749l0.581,0.753l0.577,0.757l0.571,0.76l0.568,0.763l0.563,0.767l0.559,0.772l0.554,0.774l0.549,0.776l0.545,0.782l0.541,0.785l0.535,0.787l0.531,0.792l0.526,0.794l0.523,0.798l0.517,0.802l0.512,0.805l0.508,0.807l0.503,0.811l0.499,0.816l0.492,0.817l0.489,0.82l0.484,0.825l0.48,0.828l0.474,0.831l0.469,0.833l0.464,0.836l0.46,0.84l0.455,0.844l0.449,0.844l0.445,0.849l0.44,0.854l0.434,0.854l0.43,0.858l0.425,0.862l0.419,0.864l0.415,0.867l0.409,0.869l0.404,0.873l0.399,0.876l0.394,0.877l0.389,0.882l0.384,0.885l0.378,0.886l0.373,0.889l0.368,0.893l0.362,0.895l0.357,0.898l0.352,0.901l0.346,0.902l0.342,0.907l0.336,0.909l0.33,0.91l0.325,0.914l0.319,0.916l0.314,0.918l0.309,0.921l0.303,0.925l0.298,0.926l0.292,0.929l0.286,0.931l0.281,0.933l0.276,0.937l0.269,0.939l0.264,0.94l0.259,0.943l0.252,0.946l0.247,0.948l0.241,0.949l0.236,0.953l0.23,0.955l0.224,0.956l0.218,0.96l0.212,0.96l0.207,0.964l0.201,0.965l0.195,0.968l0.189,0.97l0.183,0.971l0.177,0.975l0.171,0.976l0.165,0.977l0.159,0.981l0.153,0.981l0.148,0.984l0.141,0.986l0.135,0.987l0.129,0.99l0.123,0.992l0.116,0.993l0.111,0.995l0.104,0.997l0.098,0.999l0.092,1l0.086,1.002l0.08,1.004l0.073,1.006l0.067,1.008l0.061,1.008l0.055,1.011l0.048,1.012l0.041,1.014l0.036,1.016l0.029,1.016l0.022,1.018l0.016,1.021l0.01,1.021l0.003,1.023l-0.003,1.022l-0.01,1.022l-0.016,1.021l-0.022,1.018l-0.029,1.016l-0.036,1.016l-0.041,1.013l-0.048,1.013l-0.055,1.011l-0.061,1.008l-0.067,1.008l-0.073,1.006l-0.08,1.004l-0.086,1.002l-0.092,1l-0.098,0.998l-0.104,0.998l-0.111,0.995l-0.116,0.993l-0.123,0.992l-0.129,0.99l-0.135,0.987l-0.141,0.986l-0.148,0.984l-0.153,0.981l-0.159,0.981l-0.165,0.977l-0.171,0.976l-0.177,0.975l-0.183,0.971l-0.189,0.97l-0.195,0.968l-0.201,0.965l-0.207,0.963l-0.212,0.962l-0.218,0.959l-0.224,0.955l-0.23,0.956l-0.236,0.953l-0.241,0.95l-0.247,0.947l-0.252,0.946l-0.259,0.943l-0.264,0.94l-0.27,0.939l-0.275,0.937l-0.281,0.933l-0.286,0.931l-0.292,0.928l-0.298,0.927l-0.303,0.925l-0.309,0.92l-0.314,0.919l-0.319,0.916l-0.325,0.914l-0.33,0.911l-0.336,0.908l-0.341,0.906l-0.347,0.903l-0.352,0.901l-0.357,0.898l-0.362,0.895l-0.369,0.893l-0.372,0.889l-0.378,0.886l-0.384,0.885l-0.389,0.881l-0.394,0.878l-0.399,0.876l-0.404,0.873l-0.41,0.87l-0.414,0.866l-0.419,0.864l-0.425,0.862l-0.43,0.857l-0.434,0.855l-0.44,0.853l-0.445,0.849l-0.449,0.845l-0.455,0.844l-0.46,0.84l-0.464,0.836l-0.469,0.833l-0.474,0.831l-0.48,0.828l-0.484,0.824l-0.488,0.821l-0.493,0.817l-0.499,0.816l-0.503,0.811l-0.508,0.807l-0.512,0.804l-0.517,0.802l-0.523,0.799l-0.526,0.794l-0.531,0.792l-0.536,0.788l-0.54,0.784l-0.545,0.781l-0.55,0.778l-0.553,0.773l-0.559,0.771l-0.563,0.768l-0.568,0.763l-0.572,0.761l-0.576,0.756l-0.581,0.753l-0.585,0.749l-0.589,0.745l-0.595,0.743l-0.598,0.738l-0.602,0.735l-0.608,0.731l-0.611,0.728l-0.616,0.723l-0.619,0.72l-0.624,0.716l-0.629,0.712l-0.632,0.709l-0.637,0.705l-0.641,0.7l-0.643,0.696l-0.65,0.694l-0.654,0.69l-0.657,0.685l-0.661,0.68l-0.666,0.679l-0.669,0.672l-0.672,0.669l-0.679,0.666l-0.681,0.661l-0.685,0.658l-0.689,0.653l-0.693,0.648l-0.697,0.646l-0.7,0.64l-0.705,0.637l-0.709,0.633l-0.712,0.628l-0.716,0.624l-0.72,0.62l-0.723,0.614l-0.727,0.612l-0.733,0.608l-0.734,0.602l-0.738,0.598l-0.742,0.594l-0.745,0.589l-0.75,0.586l-0.753,0.581l-0.757,0.577l-0.76,0.572l-0.763,0.567l-0.767,0.563l-0.771,0.559l-0.774,0.554l-0.778,0.549l-0.782,0.545l-0.784,0.54l-0.788,0.536l-0.79,0.531l-0.795,0.527l-0.799,0.522l-0.801,0.517l-0.805,0.513l-0.808,0.507l-0.81,0.503l-0.815,0.498l-0.818,0.494l-0.821,0.489l-0.824,0.483l-0.827,0.479l-0.831,0.475l-0.834,0.469l-0.837,0.465l-0.84,0.459l-0.842,0.454l-0.846,0.45l-0.849,0.445l-0.853,0.44l-0.855,0.434l-0.857,0.43l-0.862,0.425l-0.864,0.419l-0.867,0.415l-0.869,0.409l-0.872,0.404l-0.877,0.4l-0.879,0.393l-0.88,0.389l-0.884,0.383l-0.887,0.379l-0.89,0.373l-0.892,0.367l-0.895,0.363l-0.898,0.357l-0.901,0.352l-0.903,0.347l-0.905,0.341l-0.909,0.336l-0.911,0.33l-0.914,0.325l-0.916,0.32l-0.92,0.314l-0.92,0.308l-0.924,0.303l-0.926,0.298l-0.928,0.292l-0.931,0.286l-0.935,0.281l-0.937,0.276l-0.938,0.269l-0.94,0.264l-0.943,0.259l-0.946,0.252l-0.948,0.247l-0.949,0.241l-0.953,0.236l-0.954,0.23l-0.957,0.224l-0.96,0.218l-0.961,0.213l-0.964,0.206l-0.964,0.201l-0.968,0.195l-0.97,0.189l-0.971,0.183l-0.975,0.177l-0.976,0.171l-0.978,0.165l-0.979,0.159l-0.982,0.154l-0.984,0.147l-0.986,0.141l-0.988,0.135l-0.989,0.129l-0.992,0.123l-0.993,0.116l-0.995,0.111l-0.997,0.104l-0.998,0.099l-1.001,0.092l-1.003,0.086l-1.004,0.079l-1.005,0.073l-1.007,0.067l-1.009,0.061l-1.012,0.055l-1.012,0.048l-1.013,0.041l-1.015,0.036l-1.017,0.029l-1.019,0.022l-1.02,0.016l-1.021,0.01l-1.023,0.003l-1.024,-0.003l-1.02,-0.01l-1.02,-0.016l-1.019,-0.022l-1.017,-0.029l-1.015,-0.036l-1.014,-0.041l-1.011,-0.048l-1.012,-0.055l-1.009,-0.061l-1.007,-0.067l-1.005,-0.073l-1.004,-0.079l-1.003,-0.086l-1.001,-0.092l-0.999,-0.099l-0.996,-0.104l-0.995,-0.111l-0.993,-0.116l-0.992,-0.123l-0.989,-0.129l-0.988,-0.135l-0.986,-0.141l-0.984,-0.147l-0.982,-0.154l-0.98,-0.159l-0.977,-0.165l-0.976,-0.171l-0.975,-0.177l-0.971,-0.183l-0.97,-0.189l-0.968,-0.195l-0.964,-0.201l-0.964,-0.206l-0.962,-0.213l-0.959,-0.218l-0.957,-0.224l-0.954,-0.23l-0.953,-0.236l-0.95,-0.241l-0.947,-0.247l-0.946,-0.252l-0.943,-0.259l-0.941,-0.264l-0.938,-0.269l-0.936,-0.276l-0.935,-0.281l-0.931,-0.286l-0.928,-0.292l-0.926,-0.298l-0.924,-0.303l-0.921,-0.308l-0.919,-0.314l-0.916,-0.32l-0.914,-0.325l-0.911,-0.33l-0.909,-0.336l-0.906,-0.341l-0.903,-0.347l-0.9,-0.352l-0.898,-0.357l-0.895,-0.363l-0.892,-0.367l-0.89,-0.373l-0.887,-0.379l-0.884,-0.383l-0.881,-0.389l-0.878,-0.393l-0.877,-0.4l-0.872,-0.404l-0.87,-0.41l-0.866,-0.414l-0.864,-0.419l-0.862,-0.425l-0.858,-0.43l-0.854,-0.434l-0.853,-0.44l-0.849,-0.445l-0.846,-0.45l-0.843,-0.454l-0.84,-0.459l-0.836,-0.465l-0.835,-0.469l-0.83,-0.475l-0.827,-0.478l-0.824,-0.484l-0.821,-0.489l-0.818,-0.494l-0.815,-0.498l-0.811,-0.503l-0.807,-0.507l-0.805,-0.513l-0.802,-0.517l-0.798,-0.522l-0.795,-0.527l-0.791,-0.531l-0.787,-0.536l-0.785,-0.54l-0.781,-0.545l-0.777,-0.549l-0.775,-0.554l-0.771,-0.559l-0.767,-0.563l-0.763,-0.567l-0.76,-0.572l-0.757,-0.577l-0.753,-0.581l-0.75,-0.585l-0.745,-0.589l-0.742,-0.595l-0.738,-0.598l-0.735,-0.602l-0.731,-0.608l-0.728,-0.611l-0.723,-0.616l-0.72,-0.619l-0.716,-0.624l-0.712,-0.628l-0.709,-0.633l-0.704,-0.637l-0.701,-0.64l-0.697,-0.646l-0.693,-0.648l-0.689,-0.653l-0.686,-0.658l-0.681,-0.661l-0.677,-0.665l-0.674,-0.67l-0.669,-0.673l-0.665,-0.677l-0.661,-0.681l-0.658,-0.686l-0.653,-0.689l-0.649,-0.693l-0.644,-0.697l-0.641,-0.7l-0.637,-0.705l-0.633,-0.709l-0.628,-0.712l-0.624,-0.716l-0.619,-0.72l-0.616,-0.723l-0.612,-0.728l-0.607,-0.731l-0.602,-0.735l-0.599,-0.738l-0.594,-0.743l-0.589,-0.744l-0.585,-0.75l-0.581,-0.753l-0.576,-0.756l-0.573,-0.761l-0.567,-0.764l-0.564,-0.767l-0.558,-0.77l-0.553,-0.774l-0.551,-0.779l-0.544,-0.78l-0.54,-0.784l-0.536,-0.788l-0.531,-0.792l-0.527,-0.794l-0.522,-0.799l-0.517,-0.802l-0.512,-0.804l-0.508,-0.808l-0.503,-0.811l-0.498,-0.814l-0.494,-0.818l-0.489,-0.821l-0.483,-0.824l-0.48,-0.828l-0.474,-0.83l-0.469,-0.834l-0.465,-0.837l-0.459,-0.839l-0.454,-0.843l-0.45,-0.846l-0.445,-0.849l-0.44,-0.852l-0.434,-0.856l-0.43,-0.857l-0.425,-0.861l-0.419,-0.865l-0.415,-0.866l-0.409,-0.871l-0.404,-0.872l-0.399,-0.876l-0.394,-0.878l-0.389,-0.881l-0.384,-0.885l-0.378,-0.886l-0.373,-0.889l-0.368,-0.893l-0.362,-0.895l-0.357,-0.898l-0.352,-0.901l-0.347,-0.903l-0.341,-0.905l-0.336,-0.909l-0.33,-0.911l-0.325,-0.913l-0.319,-0.916l-0.315,-0.92l-0.308,-0.921l-0.303,-0.924l-0.298,-0.926l-0.292,-0.929l-0.287,-0.931l-0.28,-0.934l-0.275,-0.936l-0.27,-0.938l-0.264,-0.941l-0.259,-0.943l-0.252,-0.946l-0.247,-0.947l-0.242,-0.951l-0.235,-0.952l-0.23,-0.955l-0.224,-0.956l-0.218,-0.959l-0.213,-0.962l-0.206,-0.963l-0.201,-0.966l-0.195,-0.967l-0.189,-0.97l-0.183,-0.972l-0.177,-0.974l-0.171,-0.976l-0.165,-0.977l-0.159,-0.98l-0.153,-0.982l-0.148,-0.984l-0.141,-0.986l-0.135,-0.988l-0.129,-0.989l-0.123,-0.992l-0.116,-0.993l-0.111,-0.995l-0.104,-0.998l-0.099,-0.998l-0.092,-1l-0.086,-1.003l-0.079,-1.004l-0.073,-1.005l-0.067,-1.007l-0.061,-1.009l-0.055,-1.011l-0.048,-1.012l-0.041,-1.014l-0.036,-1.016l-0.029,-1.017l-0.022,-1.017l-0.017,-1.021l-0.009,-1.022l-0.003,-1.022l0.003,-1.023l0.009,-1.021l0.017,-1.021l0.022,-1.018l0.029,-1.016l0.036,-1.016l0.041,-1.014l0.048,-1.012l0.055,-1.011l0.061,-1.009l0.067,-1.007l0.073,-1.005l0.079,-1.004l0.086,-1.003l0.092,-1.001l0.099,-0.998l0.104,-0.997l0.111,-0.995l0.116,-0.994l0.123,-0.991l0.129,-0.989l0.135,-0.988l0.141,-0.986l0.148,-0.984l0.153,-0.982l0.159,-0.98l0.165,-0.977l0.171,-0.976l0.177,-0.974l0.183,-0.972l0.189,-0.97l0.195,-0.968l0.201,-0.965l0.207,-0.964l0.212,-0.96l0.218,-0.96l0.224,-0.956l0.23,-0.955l0.235,-0.952l0.242,-0.95l0.247,-0.948l0.252,-0.946l0.259,-0.943l0.264,-0.941l0.269,-0.938l0.276,-0.936l0.28,-0.934l0.287,-0.931l0.292,-0.929l0.298,-0.926l0.303,-0.924l0.308,-0.921l0.315,-0.92l0.319,-0.916l0.325,-0.913l0.33,-0.911l0.336,-0.909l0.341,-0.906l0.347,-0.902l0.352,-0.901l0.357,-0.898l0.362,-0.895l0.368,-0.893l0.373,-0.889l0.378,-0.886l0.384,-0.885l0.389,-0.882l0.394,-0.877l0.399,-0.876l0.404,-0.873l0.409,-0.869l0.415,-0.868l0.419,-0.864l0.425,-0.861l0.43,-0.858l0.434,-0.854l0.44,-0.853l0.445,-0.849l0.45,-0.846l0.454,-0.842l0.459,-0.841l0.465,-0.836l0.469,-0.834l0.474,-0.831l0.48,-0.827l0.484,-0.824l0.488,-0.821l0.494,-0.818l0.498,-0.814l0.503,-0.811l0.508,-0.808l0.512,-0.805l0.517,-0.802l0.522,-0.798l0.527,-0.794l0.531,-0.792l0.536,-0.787l0.54,-0.785l0.545,-0.781l0.549,-0.778l0.554,-0.774l0.559,-0.77l0.563,-0.767l0.567,-0.764l0.572,-0.76l0.577,-0.757l0.581,-0.753l0.585,-0.749l0.59,-0.746l0.594,-0.742l0.598,-0.738l0.602,-0.735l0.607,-0.731l0.612,-0.727l0.616,-0.725l0.62,-0.719l0.623,-0.716l0.628,-0.712l0.633,-0.709l0.636,-0.704l0.641,-0.701l0.645,-0.697l0.65,-0.694l0.652,-0.688l0.657,-0.685l0.662,-0.682l0.665,-0.677l0.669,-0.673l0.674,-0.67l0.677,-0.665l0.681,-0.661l0.686,-0.658l0.689,-0.653l0.693,-0.648l0.696,-0.645l0.702,-0.642l0.704,-0.636l0.709,-0.633l0.712,-0.628l0.716,-0.624l0.72,-0.619l0.723,-0.616l0.728,-0.611l0.731,-0.607l0.735,-0.603l0.738,-0.598l0.742,-0.594l0.746,-0.59l0.749,-0.586l0.753,-0.58l0.757,-0.577l0.76,-0.572l0.763,-0.567l0.768,-0.563l0.77,-0.559l0.775,-0.554l0.777,-0.549l0.781,-0.545l0.785,-0.54l0.787,-0.536l0.791,-0.531l0.795,-0.527l0.798,-0.522l0.802,-0.517l0.805,-0.512l0.807,-0.508l0.812,-0.503l0.814,-0.498l0.818,-0.494l0.821,-0.489l0.824,-0.484l0.827,-0.478l0.83,-0.475l0.835,-0.469l0.836,-0.465l0.84,-0.459l0.843,-0.454l0.846,-0.45l0.849,-0.445l0.853,-0.44l0.854,-0.434l0.858,-0.43l0.862,-0.425l0.864,-0.419l0.866,-0.415l0.87,-0.409l0.872,-0.404l0.877,-0.4l0.878,-0.393l0.881,-0.389l0.884,-0.383l0.887,-0.379l0.89,-0.373l0.892,-0.367l0.895,-0.363l0.898,-0.357l0.9,-0.352l0.903,-0.347l0.906,-0.341l0.909,-0.336l0.911,-0.33l0.914,-0.325l0.916,-0.32l0.919,-0.314l0.921,-0.308l0.924,-0.303l0.926,-0.298l0.928,-0.292l0.931,-0.286l0.935,-0.281l0.936,-0.276l0.938,-0.269l0.941,-0.264l0.943,-0.259l0.946,-0.252l0.947,-0.247l0.95,-0.241l0.953,-0.236l0.954,-0.23l0.957,-0.224l0.959,-0.218l0.962,-0.213l0.964,-0.206l0.964,-0.201l0.968,-0.195l0.97,-0.189l0.971,-0.183l0.975,-0.177l0.976,-0.171l0.977,-0.165l0.981,-0.159l0.981,-0.153l0.983,-0.147l0.987,-0.142l0.988,-0.135l0.989,-0.129l0.992,-0.123l0.993,-0.116l0.995,-0.111l0.997,-0.104l0.998,-0.098l1,-0.093l1.004,-0.086l1.004,-0.079l1.005,-0.073l1.007,-0.067l1.009,-0.061l1.012,-0.055l1.011,-0.048l1.014,-0.041l1.016,-0.036l1.016,-0.029l1.018,-0.022l1.021,-0.016l1.021,-0.01l1.023,-0.003l1.022,0.003Zm-1.992,8.333l-0.969,0.009l-0.967,0.016l-0.966,0.021l-0.964,0.027l-0.963,0.034l-0.961,0.04l-0.959,0.045l-0.958,0.052l-0.957,0.057l-0.954,0.064l-0.953,0.069l-0.952,0.076l-0.95,0.081l-0.948,0.087l-0.946,0.093l-0.945,0.099l-0.943,0.105l-0.941,0.111l-0.939,0.116l-0.938,0.122l-0.935,0.128l-0.934,0.134l-0.932,0.139l-0.93,0.145l-0.929,0.151l-0.926,0.157l-0.924,0.162l-0.923,0.168l-0.92,0.173l-0.919,0.179l-0.916,0.184l-0.914,0.19l-0.913,0.196l-0.91,0.201l-0.908,0.207l-0.907,0.212l-0.904,0.218l-0.901,0.223l-0.9,0.228l-0.898,0.234l-0.895,0.239l-0.893,0.245l-0.891,0.25l-0.889,0.256l-0.886,0.26l-0.885,0.266l-0.881,0.272l-0.88,0.276l-0.877,0.282l-0.875,0.287l-0.872,0.292l-0.87,0.297l-0.868,0.303l-0.865,0.308l-0.863,0.313l-0.86,0.318l-0.858,0.323l-0.855,0.328l-0.853,0.333l-0.851,0.338l-0.847,0.344l-0.845,0.348l-0.843,0.353l-0.84,0.359l-0.837,0.363l-0.835,0.368l-0.832,0.373l-0.829,0.378l-0.826,0.383l-0.824,0.388l-0.821,0.392l-0.819,0.398l-0.815,0.402l-0.813,0.407l-0.81,0.411l-0.807,0.417l-0.804,0.421l-0.802,0.426l-0.798,0.431l-0.796,0.435l-0.792,0.44l-0.79,0.445l-0.787,0.449l-0.783,0.454l-0.781,0.458l-0.778,0.463l-0.775,0.467l-0.771,0.472l-0.769,0.477l-0.765,0.481l-0.763,0.486l-0.759,0.49l-0.756,0.494l-0.753,0.499l-0.75,0.503l-0.746,0.508l-0.743,0.512l-0.74,0.516l-0.737,0.521l-0.734,0.524l-0.73,0.53l-0.727,0.533l-0.723,0.538l-0.721,0.542l-0.717,0.546l-0.713,0.551l-0.71,0.554l-0.707,0.559l-0.703,0.563l-0.7,0.567l-0.696,0.571l-0.693,0.575l-0.689,0.579l-0.686,0.584l-0.682,0.587l-0.678,0.591l-0.675,0.596l-0.672,0.599l-0.668,0.603l-0.664,0.608l-0.66,0.611l-0.657,0.615l-0.653,0.619l-0.649,0.623l-0.646,0.626l-0.642,0.631l-0.638,0.634l-0.634,0.638l-0.631,0.642l-0.626,0.646l-0.623,0.649l-0.619,0.653l-0.615,0.657l-0.611,0.66l-0.608,0.664l-0.603,0.668l-0.599,0.672l-0.596,0.675l-0.591,0.678l-0.587,0.682l-0.584,0.686l-0.579,0.689l-0.575,0.693l-0.571,0.696l-0.567,0.7l-0.563,0.703l-0.559,0.707l-0.554,0.71l-0.551,0.713l-0.546,0.717l-0.542,0.721l-0.538,0.723l-0.533,0.727l-0.53,0.73l-0.524,0.734l-0.521,0.737l-0.516,0.74l-0.512,0.743l-0.508,0.747l-0.503,0.749l-0.499,0.753l-0.494,0.756l-0.49,0.759l-0.486,0.763l-0.481,0.765l-0.477,0.769l-0.472,0.771l-0.467,0.775l-0.463,0.778l-0.458,0.781l-0.454,0.783l-0.449,0.787l-0.445,0.79l-0.44,0.792l-0.435,0.796l-0.431,0.798l-0.426,0.802l-0.421,0.804l-0.417,0.807l-0.411,0.81l-0.407,0.813l-0.402,0.815l-0.398,0.819l-0.392,0.821l-0.388,0.824l-0.383,0.826l-0.378,0.829l-0.373,0.832l-0.368,0.835l-0.363,0.837l-0.359,0.84l-0.353,0.843l-0.348,0.845l-0.344,0.848l-0.338,0.85l-0.333,0.853l-0.328,0.855l-0.323,0.858l-0.318,0.86l-0.313,0.863l-0.308,0.865l-0.303,0.868l-0.297,0.87l-0.292,0.872l-0.287,0.875l-0.282,0.877l-0.277,0.88l-0.271,0.882l-0.266,0.884l-0.26,0.886l-0.256,0.889l-0.25,0.891l-0.245,0.893l-0.239,0.895l-0.234,0.898l-0.228,0.9l-0.223,0.901l-0.218,0.904l-0.212,0.907l-0.207,0.908l-0.201,0.91l-0.196,0.913l-0.19,0.914l-0.184,0.916l-0.179,0.919l-0.174,0.92l-0.167,0.923l-0.162,0.924l-0.157,0.927l-0.151,0.928l-0.145,0.93l-0.139,0.932l-0.134,0.934l-0.128,0.935l-0.122,0.938l-0.116,0.939l-0.111,0.941l-0.105,0.943l-0.099,0.945l-0.093,0.946l-0.087,0.948l-0.081,0.95l-0.076,0.952l-0.069,0.953l-0.064,0.954l-0.057,0.957l-0.052,0.958l-0.045,0.959l-0.04,0.961l-0.034,0.963l-0.027,0.964l-0.021,0.966l-0.016,0.967l-0.009,0.969l-0.003,0.97l0.003,0.97l0.009,0.969l0.016,0.967l0.021,0.966l0.027,0.964l0.034,0.962l0.04,0.962l0.045,0.959l0.052,0.958l0.057,0.956l0.064,0.955l0.069,0.953l0.076,0.952l0.081,0.949l0.087,0.949l0.093,0.946l0.099,0.945l0.105,0.942l0.111,0.942l0.116,0.939l0.122,0.937l0.128,0.936l0.134,0.934l0.139,0.932l0.145,0.93l0.151,0.928l0.157,0.927l0.162,0.924l0.167,0.922l0.174,0.921l0.179,0.918l0.184,0.917l0.19,0.914l0.196,0.913l0.201,0.91l0.207,0.908l0.212,0.906l0.218,0.904l0.223,0.902l0.228,0.9l0.234,0.898l0.239,0.895l0.245,0.893l0.25,0.891l0.256,0.889l0.26,0.886l0.266,0.884l0.271,0.882l0.277,0.88l0.282,0.877l0.287,0.875l0.292,0.872l0.297,0.87l0.303,0.868l0.308,0.865l0.313,0.863l0.318,0.86l0.323,0.858l0.328,0.855l0.333,0.853l0.338,0.85l0.344,0.848l0.348,0.845l0.353,0.843l0.359,0.84l0.363,0.837l0.368,0.834l0.373,0.832l0.378,0.83l0.383,0.826l0.388,0.824l0.392,0.821l0.398,0.818l0.402,0.816l0.407,0.813l0.411,0.81l0.417,0.807l0.421,0.804l0.426,0.801l0.431,0.799l0.435,0.795l0.44,0.793l0.445,0.79l0.449,0.787l0.454,0.783l0.458,0.781l0.463,0.778l0.467,0.774l0.472,0.772l0.477,0.769l0.481,0.765l0.486,0.762l0.49,0.76l0.494,0.756l0.499,0.753l0.503,0.749l0.508,0.747l0.512,0.743l0.516,0.74l0.521,0.737l0.524,0.734l0.53,0.73l0.533,0.727l0.538,0.723l0.542,0.721l0.546,0.716l0.551,0.714l0.554,0.71l0.559,0.707l0.563,0.703l0.567,0.7l0.571,0.696l0.575,0.693l0.579,0.689l0.584,0.686l0.587,0.682l0.591,0.678l0.596,0.675l0.599,0.672l0.603,0.667l0.608,0.665l0.611,0.66l0.615,0.657l0.619,0.653l0.623,0.649l0.626,0.646l0.631,0.642l0.634,0.638l0.638,0.634l0.642,0.631l0.646,0.626l0.649,0.623l0.653,0.619l0.657,0.615l0.66,0.611l0.664,0.607l0.668,0.604l0.672,0.599l0.675,0.595l0.678,0.592l0.682,0.587l0.686,0.584l0.689,0.579l0.693,0.575l0.696,0.571l0.7,0.567l0.703,0.563l0.707,0.559l0.71,0.554l0.713,0.551l0.717,0.546l0.721,0.542l0.723,0.538l0.727,0.533l0.73,0.529l0.734,0.525l0.737,0.521l0.74,0.516l0.743,0.512l0.746,0.508l0.75,0.503l0.753,0.499l0.756,0.494l0.759,0.49l0.763,0.486l0.765,0.481l0.769,0.476l0.771,0.472l0.775,0.468l0.778,0.463l0.781,0.458l0.783,0.454l0.787,0.449l0.79,0.445l0.792,0.44l0.796,0.435l0.798,0.431l0.802,0.426l0.804,0.421l0.807,0.416l0.81,0.412l0.813,0.407l0.815,0.402l0.819,0.398l0.821,0.392l0.824,0.388l0.826,0.383l0.829,0.378l0.832,0.373l0.835,0.368l0.837,0.363l0.84,0.359l0.843,0.353l0.845,0.348l0.847,0.343l0.851,0.339l0.853,0.333l0.855,0.328l0.858,0.323l0.86,0.318l0.863,0.313l0.865,0.308l0.868,0.302l0.87,0.298l0.872,0.292l0.875,0.287l0.877,0.282l0.88,0.276l0.881,0.272l0.885,0.266l0.886,0.26l0.889,0.256l0.891,0.25l0.893,0.245l0.895,0.239l0.898,0.234l0.9,0.228l0.901,0.223l0.904,0.218l0.907,0.212l0.908,0.207l0.91,0.201l0.913,0.196l0.914,0.19l0.916,0.184l0.919,0.179l0.92,0.173l0.923,0.168l0.924,0.162l0.926,0.157l0.929,0.151l0.93,0.145l0.932,0.139l0.934,0.134l0.935,0.128l0.938,0.122l0.939,0.116l0.941,0.111l0.943,0.105l0.945,0.099l0.946,0.093l0.948,0.087l0.95,0.081l0.952,0.076l0.953,0.069l0.954,0.064l0.957,0.057l0.958,0.052l0.959,0.045l0.961,0.04l0.963,0.034l0.964,0.027l0.966,0.021l0.967,0.016l0.969,0.009l0.97,0.003l0.97,-0.003l0.969,-0.009l0.967,-0.016l0.966,-0.021l0.964,-0.027l0.962,-0.034l0.962,-0.04l0.959,-0.045l0.958,-0.052l0.956,-0.057l0.955,-0.064l0.953,-0.069l0.952,-0.076l0.949,-0.081l0.949,-0.087l0.946,-0.093l0.945,-0.099l0.942,-0.105l0.942,-0.111l0.939,-0.116l0.937,-0.122l0.936,-0.128l0.934,-0.134l0.932,-0.139l0.93,-0.145l0.928,-0.151l0.927,-0.157l0.924,-0.162l0.922,-0.168l0.921,-0.173l0.918,-0.179l0.917,-0.184l0.914,-0.19l0.913,-0.196l0.91,-0.201l0.908,-0.207l0.906,-0.212l0.904,-0.218l0.902,-0.223l0.9,-0.228l0.898,-0.234l0.895,-0.239l0.893,-0.245l0.891,-0.25l0.889,-0.256l0.886,-0.26l0.884,-0.266l0.882,-0.272l0.88,-0.276l0.877,-0.282l0.875,-0.287l0.872,-0.292l0.87,-0.298l0.868,-0.302l0.865,-0.308l0.863,-0.313l0.86,-0.318l0.858,-0.323l0.855,-0.328l0.853,-0.333l0.85,-0.339l0.848,-0.343l0.845,-0.348l0.843,-0.353l0.84,-0.359l0.837,-0.363l0.834,-0.368l0.832,-0.373l0.83,-0.378l0.826,-0.383l0.824,-0.388l0.821,-0.392l0.818,-0.398l0.816,-0.402l0.813,-0.407l0.81,-0.412l0.807,-0.416l0.804,-0.421l0.801,-0.426l0.799,-0.431l0.795,-0.435l0.793,-0.44l0.79,-0.445l0.786,-0.449l0.784,-0.454l0.781,-0.458l0.778,-0.463l0.774,-0.468l0.772,-0.472l0.769,-0.476l0.765,-0.481l0.762,-0.486l0.76,-0.49l0.756,-0.494l0.753,-0.499l0.749,-0.503l0.747,-0.508l0.743,-0.512l0.74,-0.516l0.737,-0.521l0.734,-0.525l0.73,-0.529l0.727,-0.533l0.723,-0.538l0.721,-0.542l0.716,-0.546l0.714,-0.551l0.71,-0.554l0.707,-0.559l0.703,-0.563l0.7,-0.567l0.696,-0.571l0.693,-0.575l0.689,-0.579l0.686,-0.584l0.682,-0.587l0.678,-0.592l0.675,-0.595l0.672,-0.599l0.667,-0.604l0.665,-0.607l0.66,-0.611l0.657,-0.615l0.653,-0.619l0.649,-0.623l0.646,-0.626l0.642,-0.631l0.638,-0.634l0.634,-0.638l0.631,-0.642l0.626,-0.646l0.623,-0.649l0.619,-0.653l0.615,-0.657l0.611,-0.66l0.607,-0.665l0.604,-0.667l0.599,-0.672l0.595,-0.675l0.592,-0.678l0.587,-0.682l0.583,-0.686l0.58,-0.689l0.575,-0.693l0.571,-0.696l0.567,-0.7l0.563,-0.703l0.559,-0.707l0.554,-0.71l0.551,-0.714l0.546,-0.716l0.542,-0.721l0.538,-0.723l0.533,-0.727l0.529,-0.73l0.525,-0.734l0.521,-0.737l0.516,-0.74l0.512,-0.743l0.508,-0.747l0.503,-0.749l0.499,-0.753l0.494,-0.756l0.49,-0.76l0.486,-0.762l0.481,-0.765l0.476,-0.769l0.472,-0.772l0.468,-0.774l0.463,-0.778l0.458,-0.781l0.454,-0.783l0.449,-0.787l0.445,-0.79l0.44,-0.793l0.435,-0.795l0.431,-0.799l0.426,-0.801l0.421,-0.804l0.416,-0.807l0.412,-0.81l0.407,-0.813l0.402,-0.816l0.398,-0.818l0.392,-0.821l0.388,-0.824l0.383,-0.826l0.378,-0.83l0.373,-0.832l0.368,-0.834l0.363,-0.837l0.359,-0.84l0.353,-0.843l0.348,-0.845l0.343,-0.848l0.339,-0.85l0.333,-0.853l0.328,-0.855l0.323,-0.858l0.318,-0.86l0.313,-0.863l0.308,-0.865l0.302,-0.868l0.298,-0.87l0.292,-0.872l0.287,-0.875l0.282,-0.877l0.276,-0.88l0.272,-0.882l0.266,-0.884l0.26,-0.886l0.256,-0.889l0.25,-0.891l0.244,-0.893l0.24,-0.895l0.234,-0.898l0.228,-0.9l0.223,-0.902l0.218,-0.904l0.212,-0.906l0.207,-0.908l0.201,-0.91l0.195,-0.913l0.191,-0.914l0.184,-0.917l0.179,-0.918l0.173,-0.921l0.168,-0.922l0.162,-0.924l0.157,-0.927l0.151,-0.928l0.145,-0.93l0.139,-0.932l0.134,-0.934l0.128,-0.936l0.122,-0.937l0.116,-0.939l0.111,-0.942l0.105,-0.942l0.099,-0.945l0.093,-0.946l0.087,-0.949l0.081,-0.949l0.076,-0.952l0.069,-0.953l0.064,-0.955l0.057,-0.956l0.052,-0.958l0.045,-0.959l0.04,-0.962l0.033,-0.962l0.028,-0.964l0.021,-0.966l0.016,-0.967l0.009,-0.969l0.003,-0.97l-0.003,-0.97l-0.009,-0.969l-0.016,-0.967l-0.021,-0.966l-0.028,-0.964l-0.033,-0.963l-0.04,-0.961l-0.045,-0.959l-0.052,-0.958l-0.057,-0.957l-0.064,-0.954l-0.069,-0.953l-0.076,-0.952l-0.081,-0.95l-0.087,-0.948l-0.093,-0.946l-0.099,-0.945l-0.105,-0.943l-0.111,-0.941l-0.116,-0.939l-0.122,-0.938l-0.128,-0.935l-0.134,-0.934l-0.139,-0.932l-0.145,-0.93l-0.151,-0.928l-0.157,-0.927l-0.162,-0.924l-0.168,-0.923l-0.173,-0.92l-0.179,-0.919l-0.184,-0.916l-0.191,-0.914l-0.195,-0.913l-0.201,-0.91l-0.207,-0.908l-0.212,-0.907l-0.218,-0.904l-0.223,-0.901l-0.228,-0.9l-0.234,-0.898l-0.24,-0.895l-0.244,-0.893l-0.25,-0.891l-0.256,-0.889l-0.26,-0.886l-0.266,-0.884l-0.272,-0.882l-0.276,-0.88l-0.282,-0.877l-0.287,-0.875l-0.292,-0.872l-0.298,-0.87l-0.302,-0.868l-0.308,-0.865l-0.313,-0.863l-0.318,-0.86l-0.323,-0.858l-0.328,-0.855l-0.333,-0.853l-0.339,-0.85l-0.343,-0.848l-0.348,-0.845l-0.353,-0.843l-0.359,-0.84l-0.363,-0.837l-0.368,-0.835l-0.373,-0.832l-0.378,-0.829l-0.383,-0.826l-0.388,-0.824l-0.392,-0.821l-0.398,-0.819l-0.402,-0.815l-0.407,-0.813l-0.412,-0.81l-0.416,-0.807l-0.421,-0.804l-0.426,-0.802l-0.431,-0.798l-0.435,-0.796l-0.44,-0.792l-0.445,-0.79l-0.449,-0.787l-0.454,-0.783l-0.458,-0.781l-0.463,-0.778l-0.468,-0.775l-0.472,-0.771l-0.476,-0.769l-0.481,-0.765l-0.486,-0.763l-0.49,-0.759l-0.494,-0.756l-0.499,-0.753l-0.503,-0.749l-0.508,-0.747l-0.512,-0.743l-0.516,-0.74l-0.521,-0.737l-0.525,-0.734l-0.529,-0.73l-0.533,-0.727l-0.538,-0.723l-0.542,-0.721l-0.546,-0.717l-0.551,-0.713l-0.554,-0.71l-0.559,-0.707l-0.563,-0.703l-0.567,-0.7l-0.571,-0.696l-0.575,-0.693l-0.58,-0.689l-0.583,-0.686l-0.587,-0.682l-0.592,-0.678l-0.595,-0.675l-0.599,-0.672l-0.604,-0.668l-0.607,-0.664l-0.611,-0.66l-0.615,-0.657l-0.619,-0.653l-0.623,-0.649l-0.626,-0.646l-0.631,-0.642l-0.634,-0.638l-0.638,-0.634l-0.642,-0.631l-0.646,-0.626l-0.649,-0.623l-0.653,-0.619l-0.657,-0.615l-0.66,-0.611l-0.665,-0.608l-0.667,-0.603l-0.672,-0.599l-0.675,-0.596l-0.678,-0.591l-0.682,-0.587l-0.686,-0.584l-0.689,-0.579l-0.693,-0.575l-0.696,-0.571l-0.7,-0.567l-0.703,-0.563l-0.707,-0.559l-0.71,-0.554l-0.714,-0.551l-0.716,-0.546l-0.721,-0.542l-0.723,-0.538l-0.727,-0.533l-0.73,-0.53l-0.734,-0.524l-0.737,-0.521l-0.74,-0.516l-0.743,-0.512l-0.747,-0.508l-0.749,-0.503l-0.753,-0.499l-0.756,-0.494l-0.76,-0.49l-0.762,-0.486l-0.765,-0.481l-0.769,-0.477l-0.772,-0.472l-0.774,-0.467l-0.778,-0.463l-0.781,-0.458l-0.784,-0.454l-0.786,-0.449l-0.79,-0.445l-0.793,-0.44l-0.795,-0.435l-0.799,-0.431l-0.801,-0.426l-0.804,-0.421l-0.807,-0.417l-0.81,-0.411l-0.813,-0.407l-0.816,-0.402l-0.818,-0.398l-0.821,-0.392l-0.824,-0.388l-0.826,-0.383l-0.83,-0.378l-0.832,-0.373l-0.834,-0.368l-0.837,-0.363l-0.84,-0.359l-0.843,-0.353l-0.845,-0.348l-0.848,-0.344l-0.85,-0.338l-0.853,-0.333l-0.855,-0.328l-0.858,-0.323l-0.86,-0.318l-0.863,-0.313l-0.865,-0.308l-0.868,-0.303l-0.87,-0.297l-0.872,-0.292l-0.875,-0.287l-0.877,-0.282l-0.88,-0.276l-0.882,-0.272l-0.884,-0.266l-0.886,-0.26l-0.889,-0.256l-0.891,-0.25l-0.893,-0.245l-0.895,-0.239l-0.898,-0.234l-0.9,-0.228l-0.902,-0.223l-0.904,-0.218l-0.906,-0.212l-0.908,-0.207l-0.91,-0.201l-0.913,-0.196l-0.914,-0.19l-0.917,-0.184l-0.918,-0.179l-0.921,-0.173l-0.922,-0.168l-0.924,-0.162l-0.927,-0.157l-0.928,-0.151l-0.93,-0.145l-0.932,-0.139l-0.934,-0.134l-0.936,-0.128l-0.937,-0.122l-0.939,-0.116l-0.942,-0.111l-0.942,-0.105l-0.945,-0.099l-0.946,-0.093l-0.949,-0.087l-0.949,-0.081l-0.952,-0.076l-0.953,-0.069l-0.955,-0.064l-0.956,-0.057l-0.958,-0.052l-0.959,-0.045l-0.962,-0.04l-0.962,-0.034l-0.964,-0.027l-0.966,-0.021l-0.967,-0.016l-0.969,-0.009l-0.97,-0.003l-0.97,0.003Zm1.745,29.999l0.773,0.008l0.773,0.012l0.771,0.017l0.77,0.022l0.769,0.027l0.768,0.032l0.766,0.036l0.766,0.042l0.764,0.046l0.762,0.051l0.762,0.056l0.76,0.06l0.759,0.065l0.757,0.07l0.756,0.075l0.755,0.079l0.753,0.084l0.752,0.089l0.751,0.093l0.749,0.098l0.748,0.102l0.746,0.108l0.744,0.111l0.744,0.117l0.742,0.12l0.74,0.126l0.738,0.13l0.738,0.134l0.735,0.139l0.734,0.144l0.733,0.147l0.731,0.153l0.729,0.157l0.727,0.161l0.726,0.165l0.725,0.17l0.722,0.175l0.721,0.179l0.719,0.183l0.718,0.187l0.716,0.192l0.714,0.196l0.712,0.2l0.71,0.205l0.709,0.209l0.707,0.213l0.705,0.217l0.703,0.222l0.701,0.226l0.7,0.23l0.697,0.234l0.696,0.238l0.694,0.243l0.691,0.246l0.69,0.251l0.688,0.255l0.686,0.258l0.684,0.263l0.682,0.267l0.68,0.271l0.678,0.275l0.675,0.28l0.674,0.283l0.672,0.287l0.67,0.291l0.667,0.295l0.665,0.298l0.664,0.303l0.661,0.307l0.659,0.31l0.656,0.315l0.655,0.318l0.652,0.322l0.65,0.326l0.648,0.33l0.646,0.334l0.643,0.337l0.641,0.341l0.639,0.345l0.636,0.349l0.634,0.352l0.632,0.357l0.629,0.359l0.627,0.364l0.625,0.367l0.622,0.371l0.62,0.374l0.617,0.378l0.615,0.382l0.612,0.385l0.61,0.389l0.608,0.392l0.605,0.396l0.602,0.4l0.6,0.403l0.597,0.406l0.595,0.41l0.592,0.414l0.59,0.417l0.587,0.42l0.584,0.424l0.582,0.427l0.579,0.431l0.576,0.434l0.574,0.437l0.571,0.441l0.568,0.444l0.566,0.447l0.562,0.451l0.56,0.454l0.558,0.457l0.554,0.461l0.552,0.464l0.549,0.467l0.546,0.47l0.543,0.474l0.54,0.476l0.537,0.48l0.535,0.483l0.531,0.486l0.529,0.489l0.526,0.493l0.523,0.495l0.519,0.499l0.517,0.502l0.514,0.504l0.511,0.508l0.508,0.511l0.504,0.514l0.502,0.517l0.499,0.519l0.495,0.523l0.492,0.526l0.49,0.528l0.486,0.532l0.483,0.534l0.48,0.538l0.476,0.54l0.474,0.543l0.47,0.546l0.467,0.549l0.464,0.552l0.46,0.554l0.458,0.557l0.454,0.56l0.45,0.563l0.448,0.566l0.444,0.568l0.441,0.571l0.437,0.574l0.434,0.576l0.431,0.579l0.427,0.582l0.424,0.584l0.42,0.587l0.417,0.59l0.414,0.592l0.41,0.594l0.406,0.598l0.403,0.6l0.4,0.602l0.395,0.605l0.393,0.607l0.389,0.61l0.385,0.613l0.382,0.615l0.378,0.617l0.374,0.62l0.371,0.622l0.367,0.625l0.364,0.627l0.359,0.629l0.357,0.632l0.352,0.634l0.349,0.636l0.345,0.639l0.341,0.641l0.337,0.643l0.334,0.646l0.33,0.648l0.326,0.65l0.322,0.652l0.318,0.655l0.314,0.656l0.311,0.659l0.307,0.661l0.303,0.663l0.298,0.666l0.295,0.667l0.291,0.67l0.287,0.672l0.283,0.673l0.279,0.676l0.276,0.678l0.271,0.68l0.267,0.682l0.262,0.684l0.259,0.686l0.255,0.688l0.251,0.689l0.246,0.692l0.243,0.694l0.238,0.696l0.234,0.697l0.23,0.7l0.226,0.701l0.222,0.703l0.217,0.705l0.213,0.707l0.209,0.709l0.205,0.71l0.2,0.712l0.196,0.714l0.192,0.716l0.187,0.717l0.183,0.72l0.179,0.721l0.175,0.722l0.17,0.724l0.165,0.726l0.161,0.728l0.157,0.729l0.152,0.731l0.148,0.733l0.144,0.734l0.139,0.735l0.134,0.737l0.13,0.739l0.125,0.74l0.121,0.742l0.117,0.743l0.111,0.745l0.108,0.746l0.102,0.748l0.098,0.749l0.093,0.751l0.089,0.752l0.084,0.753l0.079,0.755l0.075,0.756l0.07,0.757l0.065,0.759l0.06,0.76l0.056,0.761l0.051,0.763l0.046,0.764l0.041,0.765l0.037,0.767l0.032,0.768l0.027,0.768l0.022,0.771l0.017,0.771l0.012,0.772l0.007,0.774l0.003,0.775l-0.003,0.775l-0.007,0.773l-0.012,0.773l-0.017,0.771l-0.022,0.77l-0.027,0.769l-0.032,0.768l-0.037,0.767l-0.041,0.765l-0.046,0.764l-0.051,0.762l-0.056,0.762l-0.06,0.76l-0.065,0.759l-0.07,0.757l-0.075,0.756l-0.079,0.755l-0.084,0.753l-0.089,0.752l-0.093,0.751l-0.098,0.749l-0.102,0.748l-0.108,0.746l-0.111,0.745l-0.117,0.743l-0.121,0.742l-0.125,0.74l-0.13,0.739l-0.134,0.737l-0.139,0.735l-0.144,0.734l-0.148,0.733l-0.152,0.731l-0.157,0.729l-0.161,0.727l-0.165,0.726l-0.17,0.725l-0.175,0.722l-0.179,0.721l-0.183,0.719l-0.187,0.718l-0.192,0.716l-0.196,0.714l-0.2,0.712l-0.205,0.71l-0.209,0.709l-0.213,0.707l-0.217,0.705l-0.222,0.703l-0.226,0.701l-0.23,0.7l-0.234,0.697l-0.238,0.696l-0.243,0.694l-0.246,0.691l-0.251,0.69l-0.255,0.688l-0.259,0.686l-0.262,0.684l-0.267,0.682l-0.271,0.68l-0.276,0.678l-0.279,0.676l-0.283,0.673l-0.287,0.672l-0.291,0.67l-0.295,0.667l-0.298,0.665l-0.303,0.664l-0.307,0.661l-0.311,0.659l-0.314,0.656l-0.318,0.655l-0.322,0.652l-0.326,0.65l-0.33,0.648l-0.334,0.646l-0.337,0.643l-0.341,0.641l-0.345,0.639l-0.349,0.636l-0.352,0.634l-0.357,0.632l-0.359,0.629l-0.364,0.627l-0.367,0.625l-0.371,0.622l-0.374,0.62l-0.378,0.617l-0.382,0.615l-0.385,0.612l-0.389,0.61l-0.393,0.608l-0.395,0.605l-0.4,0.602l-0.403,0.6l-0.406,0.597l-0.41,0.595l-0.414,0.592l-0.417,0.59l-0.42,0.587l-0.424,0.584l-0.427,0.582l-0.431,0.579l-0.434,0.576l-0.437,0.574l-0.441,0.571l-0.444,0.568l-0.448,0.566l-0.45,0.563l-0.454,0.56l-0.458,0.557l-0.46,0.554l-0.464,0.552l-0.467,0.549l-0.47,0.546l-0.474,0.543l-0.476,0.54l-0.48,0.537l-0.483,0.535l-0.486,0.531l-0.49,0.529l-0.492,0.526l-0.495,0.523l-0.499,0.519l-0.502,0.517l-0.504,0.514l-0.508,0.511l-0.511,0.508l-0.514,0.504l-0.517,0.502l-0.519,0.499l-0.523,0.495l-0.526,0.492l-0.529,0.49l-0.531,0.486l-0.535,0.483l-0.537,0.48l-0.54,0.476l-0.543,0.474l-0.546,0.47l-0.549,0.467l-0.552,0.464l-0.554,0.461l-0.558,0.457l-0.56,0.454l-0.562,0.451l-0.566,0.447l-0.568,0.444l-0.571,0.441l-0.574,0.437l-0.576,0.434l-0.579,0.431l-0.582,0.427l-0.584,0.424l-0.587,0.42l-0.59,0.417l-0.592,0.414l-0.595,0.41l-0.597,0.406l-0.6,0.403l-0.602,0.4l-0.605,0.396l-0.608,0.392l-0.61,0.389l-0.612,0.385l-0.615,0.382l-0.617,0.378l-0.62,0.374l-0.622,0.371l-0.625,0.367l-0.627,0.364l-0.629,0.359l-0.632,0.357l-0.634,0.352l-0.636,0.349l-0.639,0.345l-0.641,0.341l-0.643,0.337l-0.646,0.334l-0.648,0.33l-0.65,0.326l-0.652,0.322l-0.655,0.318l-0.656,0.315l-0.659,0.31l-0.661,0.307l-0.664,0.303l-0.665,0.298l-0.667,0.295l-0.67,0.291l-0.672,0.287l-0.674,0.283l-0.675,0.28l-0.678,0.275l-0.68,0.271l-0.682,0.267l-0.684,0.263l-0.686,0.258l-0.688,0.255l-0.69,0.251l-0.691,0.246l-0.694,0.243l-0.696,0.238l-0.697,0.234l-0.7,0.23l-0.701,0.226l-0.703,0.222l-0.705,0.217l-0.707,0.213l-0.709,0.209l-0.71,0.205l-0.712,0.2l-0.714,0.196l-0.716,0.192l-0.718,0.187l-0.719,0.183l-0.721,0.179l-0.722,0.175l-0.725,0.17l-0.726,0.165l-0.727,0.161l-0.729,0.157l-0.731,0.153l-0.733,0.147l-0.734,0.144l-0.735,0.139l-0.738,0.134l-0.738,0.13l-0.74,0.126l-0.742,0.12l-0.744,0.117l-0.744,0.111l-0.746,0.108l-0.748,0.102l-0.749,0.098l-0.751,0.093l-0.752,0.089l-0.753,0.084l-0.755,0.079l-0.756,0.075l-0.757,0.07l-0.759,0.065l-0.76,0.06l-0.762,0.056l-0.762,0.051l-0.764,0.046l-0.766,0.042l-0.766,0.036l-0.768,0.032l-0.769,0.027l-0.77,0.022l-0.771,0.017l-0.773,0.012l-0.773,0.008l-0.775,0.002l-0.775,-0.002l-0.774,-0.008l-0.772,-0.012l-0.771,-0.017l-0.771,-0.022l-0.768,-0.027l-0.768,-0.032l-0.767,-0.036l-0.765,-0.042l-0.764,-0.046l-0.763,-0.051l-0.761,-0.056l-0.76,-0.06l-0.759,-0.065l-0.757,-0.07l-0.756,-0.075l-0.755,-0.079l-0.754,-0.084l-0.751,-0.089l-0.751,-0.093l-0.749,-0.098l-0.748,-0.102l-0.746,-0.108l-0.745,-0.111l-0.743,-0.117l-0.742,-0.12l-0.74,-0.126l-0.739,-0.13l-0.737,-0.134l-0.735,-0.139l-0.735,-0.144l-0.732,-0.147l-0.731,-0.153l-0.729,-0.157l-0.728,-0.161l-0.726,-0.165l-0.724,-0.17l-0.722,-0.175l-0.721,-0.179l-0.72,-0.183l-0.717,-0.187l-0.716,-0.192l-0.714,-0.196l-0.712,-0.2l-0.71,-0.205l-0.709,-0.209l-0.707,-0.213l-0.705,-0.217l-0.703,-0.222l-0.701,-0.226l-0.7,-0.23l-0.697,-0.234l-0.696,-0.238l-0.694,-0.243l-0.692,-0.246l-0.689,-0.251l-0.688,-0.255l-0.686,-0.258l-0.684,-0.263l-0.682,-0.267l-0.68,-0.271l-0.678,-0.275l-0.676,-0.28l-0.673,-0.283l-0.672,-0.287l-0.67,-0.291l-0.667,-0.295l-0.666,-0.298l-0.663,-0.303l-0.661,-0.307l-0.659,-0.31l-0.656,-0.315l-0.655,-0.318l-0.652,-0.322l-0.65,-0.326l-0.648,-0.33l-0.646,-0.334l-0.643,-0.337l-0.641,-0.341l-0.639,-0.345l-0.636,-0.349l-0.634,-0.352l-0.632,-0.357l-0.629,-0.359l-0.627,-0.364l-0.625,-0.367l-0.622,-0.371l-0.62,-0.374l-0.617,-0.378l-0.615,-0.382l-0.613,-0.385l-0.61,-0.389l-0.607,-0.392l-0.605,-0.396l-0.602,-0.4l-0.6,-0.403l-0.598,-0.406l-0.594,-0.41l-0.593,-0.414l-0.589,-0.417l-0.587,-0.42l-0.584,-0.424l-0.582,-0.427l-0.579,-0.431l-0.576,-0.434l-0.574,-0.437l-0.571,-0.441l-0.568,-0.444l-0.566,-0.447l-0.563,-0.451l-0.56,-0.454l-0.557,-0.457l-0.554,-0.461l-0.552,-0.464l-0.549,-0.467l-0.546,-0.47l-0.543,-0.474l-0.54,-0.476l-0.538,-0.48l-0.534,-0.483l-0.532,-0.486l-0.528,-0.49l-0.526,-0.492l-0.523,-0.495l-0.52,-0.499l-0.516,-0.502l-0.514,-0.504l-0.511,-0.508l-0.508,-0.511l-0.504,-0.514l-0.502,-0.517l-0.499,-0.519l-0.495,-0.523l-0.493,-0.526l-0.489,-0.529l-0.486,-0.531l-0.483,-0.535l-0.48,-0.537l-0.477,-0.54l-0.473,-0.543l-0.47,-0.546l-0.467,-0.549l-0.464,-0.552l-0.461,-0.554l-0.457,-0.557l-0.454,-0.56l-0.451,-0.563l-0.447,-0.566l-0.444,-0.568l-0.441,-0.571l-0.437,-0.574l-0.434,-0.576l-0.431,-0.579l-0.427,-0.582l-0.424,-0.584l-0.42,-0.587l-0.417,-0.59l-0.414,-0.592l-0.41,-0.595l-0.406,-0.597l-0.403,-0.6l-0.4,-0.602l-0.396,-0.605l-0.392,-0.608l-0.389,-0.61l-0.385,-0.612l-0.382,-0.615l-0.378,-0.617l-0.374,-0.62l-0.371,-0.622l-0.367,-0.625l-0.364,-0.627l-0.36,-0.629l-0.356,-0.632l-0.352,-0.634l-0.349,-0.636l-0.345,-0.639l-0.341,-0.641l-0.337,-0.643l-0.334,-0.646l-0.33,-0.648l-0.326,-0.65l-0.322,-0.652l-0.318,-0.655l-0.315,-0.656l-0.31,-0.659l-0.307,-0.661l-0.303,-0.664l-0.299,-0.665l-0.294,-0.667l-0.291,-0.67l-0.287,-0.672l-0.284,-0.673l-0.279,-0.676l-0.275,-0.678l-0.271,-0.68l-0.267,-0.682l-0.263,-0.684l-0.258,-0.686l-0.255,-0.688l-0.251,-0.69l-0.246,-0.691l-0.243,-0.694l-0.238,-0.696l-0.234,-0.697l-0.23,-0.7l-0.226,-0.701l-0.222,-0.703l-0.217,-0.705l-0.213,-0.707l-0.209,-0.709l-0.205,-0.71l-0.2,-0.712l-0.196,-0.714l-0.192,-0.716l-0.187,-0.718l-0.183,-0.719l-0.179,-0.721l-0.175,-0.722l-0.17,-0.725l-0.165,-0.726l-0.161,-0.727l-0.157,-0.729l-0.153,-0.731l-0.147,-0.733l-0.144,-0.734l-0.139,-0.735l-0.134,-0.737l-0.13,-0.739l-0.126,-0.74l-0.12,-0.742l-0.117,-0.743l-0.111,-0.745l-0.108,-0.746l-0.102,-0.748l-0.098,-0.749l-0.093,-0.751l-0.089,-0.752l-0.084,-0.753l-0.079,-0.755l-0.075,-0.756l-0.07,-0.757l-0.065,-0.759l-0.06,-0.76l-0.056,-0.762l-0.051,-0.762l-0.046,-0.764l-0.042,-0.765l-0.036,-0.767l-0.032,-0.768l-0.027,-0.769l-0.022,-0.77l-0.017,-0.771l-0.012,-0.773l-0.008,-0.773l-0.002,-0.775l0.002,-0.775l0.008,-0.774l0.012,-0.772l0.017,-0.771l0.022,-0.771l0.027,-0.768l0.032,-0.768l0.036,-0.767l0.042,-0.765l0.046,-0.764l0.051,-0.763l0.056,-0.761l0.06,-0.76l0.065,-0.759l0.07,-0.757l0.075,-0.756l0.079,-0.755l0.084,-0.753l0.089,-0.752l0.093,-0.751l0.098,-0.749l0.102,-0.748l0.108,-0.746l0.111,-0.745l0.117,-0.743l0.12,-0.742l0.126,-0.74l0.13,-0.739l0.134,-0.737l0.139,-0.735l0.144,-0.734l0.147,-0.733l0.153,-0.731l0.157,-0.729l0.161,-0.728l0.165,-0.726l0.17,-0.724l0.175,-0.722l0.179,-0.721l0.183,-0.72l0.187,-0.717l0.192,-0.716l0.196,-0.714l0.2,-0.712l0.205,-0.71l0.209,-0.709l0.213,-0.707l0.217,-0.705l0.222,-0.703l0.226,-0.701l0.23,-0.7l0.234,-0.697l0.238,-0.696l0.243,-0.694l0.246,-0.692l0.251,-0.689l0.255,-0.688l0.258,-0.686l0.263,-0.684l0.267,-0.682l0.271,-0.68l0.275,-0.678l0.279,-0.676l0.284,-0.673l0.287,-0.672l0.291,-0.67l0.294,-0.667l0.299,-0.666l0.303,-0.663l0.307,-0.661l0.31,-0.659l0.315,-0.656l0.318,-0.655l0.322,-0.652l0.326,-0.65l0.33,-0.648l0.334,-0.646l0.337,-0.643l0.341,-0.641l0.345,-0.639l0.349,-0.636l0.352,-0.634l0.356,-0.632l0.36,-0.629l0.364,-0.627l0.367,-0.625l0.371,-0.622l0.374,-0.62l0.378,-0.617l0.382,-0.615l0.385,-0.613l0.389,-0.61l0.392,-0.607l0.396,-0.605l0.4,-0.602l0.403,-0.6l0.406,-0.598l0.41,-0.594l0.414,-0.592l0.417,-0.59l0.42,-0.587l0.424,-0.584l0.427,-0.582l0.431,-0.579l0.434,-0.576l0.437,-0.574l0.441,-0.571l0.444,-0.568l0.447,-0.566l0.451,-0.563l0.454,-0.56l0.457,-0.557l0.461,-0.554l0.464,-0.552l0.467,-0.549l0.47,-0.546l0.473,-0.543l0.477,-0.54l0.48,-0.538l0.483,-0.534l0.486,-0.532l0.489,-0.528l0.493,-0.526l0.495,-0.523l0.499,-0.519l0.502,-0.517l0.504,-0.514l0.508,-0.511l0.511,-0.508l0.514,-0.504l0.516,-0.502l0.52,-0.499l0.523,-0.495l0.526,-0.493l0.528,-0.489l0.532,-0.486l0.534,-0.483l0.538,-0.48l0.54,-0.476l0.543,-0.474l0.546,-0.47l0.549,-0.467l0.552,-0.464l0.554,-0.461l0.557,-0.457l0.56,-0.454l0.563,-0.451l0.566,-0.447l0.568,-0.444l0.571,-0.441l0.574,-0.437l0.576,-0.434l0.579,-0.431l0.582,-0.427l0.584,-0.424l0.587,-0.42l0.589,-0.417l0.593,-0.414l0.594,-0.41l0.598,-0.406l0.6,-0.403l0.602,-0.4l0.605,-0.396l0.607,-0.392l0.61,-0.389l0.613,-0.385l0.615,-0.382l0.617,-0.378l0.62,-0.374l0.622,-0.371l0.625,-0.367l0.627,-0.364l0.629,-0.359l0.632,-0.357l0.634,-0.352l0.636,-0.349l0.639,-0.345l0.641,-0.341l0.643,-0.337l0.646,-0.334l0.648,-0.33l0.65,-0.326l0.652,-0.322l0.655,-0.318l0.656,-0.315l0.659,-0.31l0.661,-0.307l0.663,-0.303l0.666,-0.298l0.667,-0.295l0.67,-0.291l0.672,-0.287l0.673,-0.283l0.676,-0.28l0.678,-0.275l0.68,-0.271l0.682,-0.267l0.684,-0.263l0.686,-0.258l0.688,-0.255l0.689,-0.251l0.692,-0.246l0.694,-0.243l0.696,-0.238l0.697,-0.234l0.7,-0.23l0.701,-0.226l0.703,-0.222l0.705,-0.217l0.707,-0.213l0.709,-0.209l0.71,-0.205l0.712,-0.2l0.714,-0.196l0.716,-0.192l0.717,-0.187l0.72,-0.183l0.721,-0.179l0.722,-0.175l0.724,-0.17l0.726,-0.165l0.728,-0.161l0.729,-0.157l0.731,-0.153l0.732,-0.147l0.735,-0.144l0.735,-0.139l0.737,-0.134l0.739,-0.13l0.74,-0.126l0.742,-0.12l0.743,-0.117l0.745,-0.111l0.746,-0.108l0.748,-0.102l0.749,-0.098l0.751,-0.093l0.751,-0.089l0.754,-0.084l0.755,-0.079l0.756,-0.075l0.757,-0.07l0.759,-0.065l0.76,-0.06l0.761,-0.056l0.763,-0.051l0.764,-0.046l0.765,-0.042l0.767,-0.036l0.768,-0.032l0.768,-0.027l0.771,-0.022l0.771,-0.017l0.772,-0.012l0.774,-0.008l0.775,-0.002l0.775,0.002Zm-1.497,8.334l-0.72,0.007l-0.721,0.011l-0.718,0.016l-0.716,0.02l-0.717,0.026l-0.715,0.029l-0.713,0.034l-0.712,0.039l-0.712,0.043l-0.711,0.047l-0.708,0.052l-0.706,0.056l-0.707,0.061l-0.706,0.065l-0.704,0.069l-0.701,0.074l-0.7,0.078l-0.701,0.083l-0.698,0.086l-0.697,0.092l-0.696,0.095l-0.693,0.099l-0.693,0.104l-0.692,0.109l-0.689,0.112l-0.69,0.117l-0.686,0.121l-0.685,0.125l-0.685,0.129l-0.683,0.133l-0.681,0.138l-0.68,0.142l-0.679,0.146l-0.676,0.149l-0.675,0.154l-0.672,0.158l-0.673,0.163l-0.672,0.166l-0.667,0.17l-0.667,0.174l-0.666,0.178l-0.663,0.183l-0.663,0.186l-0.662,0.191l-0.658,0.194l-0.657,0.198l-0.657,0.203l-0.653,0.205l-0.651,0.21l-0.652,0.214l-0.648,0.218l-0.647,0.222l-0.646,0.225l-0.642,0.229l-0.642,0.233l-0.641,0.238l-0.637,0.24l-0.636,0.244l-0.634,0.249l-0.632,0.252l-0.631,0.256l-0.628,0.259l-0.628,0.264l-0.624,0.267l-0.623,0.27l-0.622,0.275l-0.618,0.278l-0.616,0.281l-0.616,0.286l-0.612,0.288l-0.611,0.293l-0.61,0.297l-0.607,0.299l-0.603,0.303l-0.603,0.307l-0.602,0.311l-0.599,0.314l-0.596,0.317l-0.593,0.32l-0.593,0.326l-0.59,0.327l-0.587,0.331l-0.587,0.335l-0.583,0.339l-0.582,0.342l-0.578,0.344l-0.577,0.349l-0.575,0.352l-0.572,0.355l-0.57,0.358l-0.568,0.363l-0.565,0.364l-0.563,0.369l-0.561,0.372l-0.558,0.375l-0.556,0.378l-0.553,0.382l-0.552,0.385l-0.55,0.389l-0.546,0.391l-0.544,0.394l-0.54,0.397l-0.54,0.402l-0.537,0.404l-0.534,0.407l-0.531,0.41l-0.529,0.414l-0.527,0.416l-0.524,0.42l-0.522,0.423l-0.518,0.426l-0.517,0.428l-0.514,0.433l-0.51,0.434l-0.508,0.438l-0.506,0.441l-0.503,0.444l-0.501,0.446l-0.498,0.451l-0.495,0.452l-0.491,0.455l-0.49,0.459l-0.487,0.462l-0.484,0.464l-0.481,0.467l-0.479,0.47l-0.475,0.473l-0.473,0.475l-0.47,0.479l-0.467,0.481l-0.465,0.484l-0.461,0.487l-0.458,0.489l-0.456,0.493l-0.453,0.495l-0.45,0.497l-0.446,0.501l-0.444,0.502l-0.441,0.507l-0.438,0.508l-0.434,0.51l-0.433,0.515l-0.429,0.516l-0.425,0.518l-0.423,0.522l-0.42,0.524l-0.416,0.526l-0.413,0.529l-0.411,0.532l-0.407,0.534l-0.404,0.537l-0.401,0.539l-0.398,0.541l-0.394,0.544l-0.392,0.547l-0.388,0.549l-0.385,0.551l-0.382,0.554l-0.378,0.556l-0.375,0.558l-0.371,0.56l-0.369,0.564l-0.366,0.566l-0.362,0.567l-0.358,0.57l-0.355,0.572l-0.352,0.575l-0.349,0.576l-0.345,0.579l-0.341,0.582l-0.339,0.584l-0.335,0.585l-0.331,0.588l-0.328,0.59l-0.324,0.593l-0.321,0.594l-0.317,0.595l-0.314,0.599l-0.311,0.601l-0.307,0.603l-0.303,0.605l-0.3,0.607l-0.296,0.608l-0.293,0.612l-0.289,0.612l-0.285,0.615l-0.281,0.617l-0.279,0.62l-0.274,0.62l-0.27,0.622l-0.267,0.626l-0.264,0.627l-0.259,0.628l-0.256,0.63l-0.252,0.633l-0.249,0.634l-0.244,0.636l-0.241,0.638l-0.237,0.64l-0.233,0.641l-0.229,0.644l-0.226,0.645l-0.221,0.647l-0.218,0.649l-0.214,0.65l-0.21,0.652l-0.206,0.654l-0.202,0.656l-0.198,0.658l-0.195,0.658l-0.19,0.66l-0.186,0.663l-0.182,0.664l-0.179,0.665l-0.174,0.668l-0.17,0.669l-0.166,0.67l-0.163,0.672l-0.158,0.673l-0.154,0.676l-0.15,0.676l-0.146,0.678l-0.141,0.68l-0.138,0.681l-0.133,0.682l-0.129,0.685l-0.125,0.686l-0.121,0.686l-0.117,0.69l-0.112,0.689l-0.109,0.692l-0.104,0.693l-0.099,0.693l-0.095,0.696l-0.092,0.697l-0.086,0.699l-0.083,0.699l-0.078,0.701l-0.074,0.703l-0.069,0.703l-0.065,0.705l-0.061,0.706l-0.056,0.707l-0.052,0.709l-0.047,0.71l-0.043,0.711l-0.039,0.713l-0.034,0.714l-0.03,0.714l-0.025,0.716l-0.02,0.717l-0.016,0.719l-0.011,0.719l-0.007,0.721l-0.003,0.722l0.003,0.722l0.007,0.72l0.011,0.72l0.016,0.719l0.02,0.717l0.025,0.716l0.03,0.714l0.034,0.714l0.039,0.712l0.043,0.712l0.047,0.71l0.052,0.708l0.056,0.708l0.061,0.706l0.065,0.705l0.069,0.703l0.074,0.703l0.078,0.701l0.083,0.699l0.086,0.699l0.092,0.697l0.095,0.695l0.099,0.694l0.104,0.693l0.109,0.691l0.112,0.69l0.117,0.69l0.121,0.686l0.125,0.686l0.129,0.684l0.133,0.682l0.138,0.682l0.141,0.68l0.146,0.677l0.15,0.677l0.154,0.676l0.158,0.673l0.163,0.672l0.166,0.67l0.17,0.669l0.174,0.668l0.178,0.665l0.183,0.664l0.186,0.663l0.19,0.66l0.195,0.658l0.198,0.658l0.202,0.656l0.206,0.654l0.21,0.651l0.214,0.651l0.218,0.649l0.221,0.647l0.226,0.645l0.229,0.644l0.233,0.642l0.237,0.639l0.241,0.637l0.245,0.637l0.248,0.634l0.252,0.632l0.256,0.631l0.259,0.628l0.263,0.627l0.268,0.625l0.27,0.623l0.275,0.621l0.278,0.619l0.281,0.616l0.285,0.615l0.289,0.613l0.293,0.612l0.296,0.608l0.3,0.607l0.303,0.605l0.307,0.603l0.31,0.6l0.314,0.599l0.318,0.597l0.321,0.594l0.324,0.592l0.328,0.59l0.332,0.588l0.334,0.585l0.339,0.584l0.341,0.582l0.345,0.579l0.349,0.576l0.352,0.575l0.355,0.572l0.358,0.57l0.362,0.567l0.366,0.566l0.368,0.563l0.372,0.561l0.375,0.558l0.378,0.556l0.383,0.554l0.384,0.551l0.388,0.548l0.392,0.548l0.394,0.544l0.398,0.541l0.401,0.539l0.404,0.537l0.407,0.534l0.41,0.531l0.414,0.529l0.417,0.527l0.419,0.524l0.422,0.521l0.426,0.519l0.43,0.517l0.431,0.513l0.435,0.511l0.438,0.508l0.44,0.506l0.445,0.503l0.447,0.501l0.449,0.498l0.452,0.494l0.456,0.492l0.459,0.49l0.462,0.487l0.464,0.484l0.467,0.481l0.469,0.478l0.474,0.476l0.475,0.473l0.479,0.47l0.481,0.468l0.484,0.463l0.487,0.462l0.49,0.459l0.491,0.455l0.495,0.452l0.498,0.451l0.501,0.446l0.503,0.444l0.505,0.441l0.509,0.438l0.511,0.435l0.513,0.431l0.517,0.429l0.518,0.426l0.522,0.423l0.524,0.42l0.527,0.416l0.529,0.414l0.53,0.409l0.535,0.408l0.538,0.405l0.538,0.4l0.541,0.398l0.545,0.394l0.545,0.391l0.55,0.389l0.552,0.385l0.553,0.382l0.556,0.378l0.558,0.375l0.56,0.371l0.564,0.369l0.566,0.366l0.567,0.362l0.57,0.358l0.572,0.355l0.575,0.352l0.577,0.349l0.578,0.344l0.582,0.342l0.583,0.339l0.587,0.335l0.587,0.331l0.59,0.327l0.593,0.326l0.593,0.32l0.596,0.317l0.599,0.314l0.602,0.311l0.602,0.307l0.604,0.303l0.608,0.3l0.609,0.296l0.611,0.293l0.612,0.288l0.616,0.286l0.616,0.281l0.618,0.278l0.622,0.275l0.623,0.27l0.624,0.267l0.628,0.264l0.628,0.259l0.631,0.256l0.632,0.252l0.634,0.249l0.636,0.244l0.637,0.24l0.641,0.238l0.642,0.233l0.642,0.229l0.646,0.225l0.647,0.222l0.648,0.218l0.652,0.214l0.651,0.21l0.653,0.205l0.657,0.203l0.657,0.198l0.658,0.194l0.662,0.191l0.663,0.186l0.663,0.183l0.666,0.178l0.667,0.174l0.669,0.17l0.67,0.167l0.671,0.162l0.674,0.158l0.675,0.154l0.676,0.149l0.679,0.146l0.68,0.142l0.681,0.138l0.683,0.133l0.685,0.129l0.685,0.125l0.686,0.121l0.69,0.117l0.689,0.112l0.692,0.109l0.693,0.104l0.693,0.099l0.696,0.095l0.697,0.092l0.698,0.086l0.701,0.083l0.7,0.078l0.701,0.074l0.705,0.069l0.705,0.065l0.706,0.061l0.707,0.056l0.709,0.052l0.71,0.048l0.711,0.042l0.713,0.039l0.713,0.034l0.715,0.029l0.717,0.026l0.716,0.02l0.718,0.016l0.721,0.011l0.72,0.007l0.722,0.002l0.722,-0.002l0.72,-0.007l0.721,-0.011l0.718,-0.016l0.716,-0.02l0.717,-0.026l0.715,-0.029l0.712,-0.034l0.714,-0.039l0.711,-0.042l0.71,-0.048l0.709,-0.052l0.707,-0.056l0.705,-0.061l0.706,-0.065l0.705,-0.069l0.7,-0.074l0.701,-0.078l0.701,-0.083l0.698,-0.086l0.697,-0.092l0.696,-0.095l0.693,-0.099l0.693,-0.104l0.691,-0.109l0.69,-0.112l0.69,-0.117l0.686,-0.121l0.685,-0.125l0.685,-0.129l0.682,-0.133l0.682,-0.138l0.68,-0.142l0.679,-0.146l0.676,-0.149l0.674,-0.154l0.675,-0.158l0.671,-0.162l0.67,-0.167l0.669,-0.17l0.667,-0.174l0.666,-0.178l0.663,-0.183l0.663,-0.186l0.661,-0.191l0.658,-0.194l0.658,-0.198l0.657,-0.202l0.652,-0.206l0.652,-0.21l0.652,-0.214l0.648,-0.218l0.647,-0.222l0.645,-0.225l0.643,-0.229l0.642,-0.233l0.64,-0.238l0.638,-0.24l0.636,-0.244l0.633,-0.249l0.633,-0.252l0.631,-0.256l0.628,-0.259l0.627,-0.264l0.625,-0.267l0.623,-0.27l0.621,-0.275l0.619,-0.278l0.616,-0.281l0.615,-0.286l0.613,-0.289l0.611,-0.292l0.609,-0.296l0.608,-0.3l0.604,-0.303l0.602,-0.307l0.601,-0.31l0.599,-0.315l0.597,-0.317l0.593,-0.32l0.593,-0.325l0.59,-0.328l0.587,-0.331l0.586,-0.335l0.585,-0.339l0.581,-0.342l0.578,-0.344l0.577,-0.349l0.575,-0.352l0.572,-0.355l0.57,-0.358l0.567,-0.362l0.566,-0.366l0.564,-0.369l0.56,-0.371l0.558,-0.375l0.556,-0.379l0.554,-0.381l0.551,-0.385l0.55,-0.389l0.545,-0.391l0.544,-0.394l0.542,-0.398l0.538,-0.4l0.537,-0.405l0.535,-0.408l0.532,-0.41l0.528,-0.412l0.527,-0.417l0.524,-0.42l0.521,-0.423l0.519,-0.426l0.516,-0.428l0.513,-0.432l0.512,-0.436l0.509,-0.437l0.505,-0.441l0.503,-0.444l0.5,-0.446l0.498,-0.45l0.495,-0.453l0.492,-0.456l0.49,-0.458l0.487,-0.462l0.483,-0.463l0.482,-0.468l0.478,-0.47l0.476,-0.473l0.473,-0.476l0.47,-0.478l0.467,-0.481l0.464,-0.484l0.461,-0.487l0.46,-0.49l0.455,-0.492l0.452,-0.494l0.45,-0.498l0.447,-0.501l0.444,-0.503l0.441,-0.506l0.438,-0.508l0.435,-0.511l0.431,-0.513l0.429,-0.517l0.427,-0.519l0.422,-0.521l0.419,-0.524l0.418,-0.527l0.413,-0.529l0.409,-0.531l0.408,-0.534l0.404,-0.537l0.401,-0.539l0.398,-0.541l0.394,-0.544l0.392,-0.548l0.388,-0.548l0.384,-0.55l0.382,-0.555l0.379,-0.556l0.375,-0.558l0.372,-0.561l0.368,-0.563l0.366,-0.566l0.361,-0.566l0.359,-0.57l0.355,-0.574l0.352,-0.574l0.349,-0.577l0.344,-0.578l0.342,-0.582l0.339,-0.584l0.334,-0.585l0.332,-0.588l0.328,-0.59l0.324,-0.593l0.321,-0.593l0.318,-0.597l0.314,-0.599l0.309,-0.599l0.307,-0.604l0.304,-0.605l0.3,-0.607l0.296,-0.609l0.293,-0.611l0.289,-0.613l0.285,-0.614l0.281,-0.617l0.279,-0.62l0.274,-0.62l0.27,-0.623l0.267,-0.625l0.264,-0.627l0.259,-0.628l0.256,-0.63l0.252,-0.633l0.248,-0.634l0.245,-0.636l0.241,-0.639l0.237,-0.639l0.233,-0.642l0.229,-0.642l0.225,-0.646l0.222,-0.648l0.218,-0.648l0.214,-0.65l0.21,-0.652l0.206,-0.654l0.202,-0.656l0.198,-0.658l0.194,-0.658l0.191,-0.661l0.186,-0.662l0.182,-0.664l0.179,-0.666l0.174,-0.667l0.17,-0.669l0.166,-0.669l0.163,-0.674l0.158,-0.672l0.154,-0.675l0.15,-0.678l0.145,-0.677l0.142,-0.68l0.138,-0.682l0.133,-0.683l0.13,-0.684l0.124,-0.685l0.121,-0.686l0.117,-0.69l0.112,-0.69l0.108,-0.69l0.104,-0.694l0.1,-0.694l0.095,-0.695l0.092,-0.697l0.086,-0.698l0.083,-0.7l0.078,-0.701l0.074,-0.703l0.069,-0.702l0.065,-0.706l0.061,-0.706l0.056,-0.707l0.052,-0.709l0.047,-0.71l0.043,-0.712l0.039,-0.712l0.034,-0.713l0.029,-0.715l0.026,-0.717l0.02,-0.716l0.016,-0.718l0.011,-0.721l0.007,-0.72l0.002,-0.722l-0.002,-0.722l-0.007,-0.721l-0.011,-0.72l-0.016,-0.718l-0.02,-0.716l-0.026,-0.717l-0.029,-0.715l-0.034,-0.712l-0.039,-0.713l-0.043,-0.712l-0.047,-0.71l-0.052,-0.709l-0.056,-0.707l-0.061,-0.705l-0.065,-0.707l-0.069,-0.702l-0.074,-0.703l-0.078,-0.702l-0.083,-0.699l-0.086,-0.698l-0.092,-0.697l-0.095,-0.695l-0.1,-0.694l-0.104,-0.695l-0.108,-0.69l-0.112,-0.689l-0.117,-0.69l-0.121,-0.686l-0.125,-0.685l-0.129,-0.685l-0.133,-0.683l-0.138,-0.681l-0.142,-0.68l-0.145,-0.678l-0.15,-0.677l-0.154,-0.675l-0.158,-0.673l-0.163,-0.673l-0.166,-0.669l-0.17,-0.669l-0.174,-0.667l-0.179,-0.666l-0.182,-0.665l-0.186,-0.661l-0.191,-0.662l-0.194,-0.657l-0.198,-0.658l-0.202,-0.656l-0.206,-0.653l-0.211,-0.654l-0.213,-0.65l-0.218,-0.648l-0.222,-0.647l-0.225,-0.646l-0.229,-0.642l-0.233,-0.642l-0.237,-0.64l-0.241,-0.638l-0.244,-0.636l-0.249,-0.633l-0.253,-0.635l-0.255,-0.629l-0.259,-0.628l-0.264,-0.628l-0.267,-0.625l-0.27,-0.622l-0.274,-0.62l-0.279,-0.62l-0.282,-0.618l-0.285,-0.614l-0.288,-0.612l-0.293,-0.612l-0.296,-0.608l-0.3,-0.606l-0.303,-0.606l-0.308,-0.604l-0.31,-0.6l-0.314,-0.599l-0.317,-0.596l-0.32,-0.593l-0.326,-0.593l-0.327,-0.59l-0.331,-0.587l-0.335,-0.586l-0.339,-0.584l-0.342,-0.582l-0.344,-0.578l-0.349,-0.577l-0.352,-0.574l-0.355,-0.574l-0.359,-0.57l-0.361,-0.566l-0.366,-0.566l-0.368,-0.563l-0.372,-0.561l-0.375,-0.558l-0.379,-0.556l-0.382,-0.554l-0.384,-0.551l-0.388,-0.549l-0.392,-0.547l-0.394,-0.544l-0.398,-0.541l-0.401,-0.539l-0.404,-0.537l-0.408,-0.534l-0.41,-0.532l-0.413,-0.529l-0.416,-0.526l-0.42,-0.524l-0.423,-0.522l-0.426,-0.518l-0.428,-0.516l-0.433,-0.515l-0.434,-0.51l-0.438,-0.508l-0.441,-0.507l-0.444,-0.502l-0.446,-0.501l-0.45,-0.497l-0.453,-0.495l-0.456,-0.493l-0.458,-0.489l-0.461,-0.487l-0.465,-0.484l-0.467,-0.481l-0.47,-0.479l-0.473,-0.476l-0.476,-0.472l-0.478,-0.47l-0.481,-0.467l-0.484,-0.464l-0.487,-0.462l-0.49,-0.459l-0.492,-0.455l-0.495,-0.453l-0.498,-0.45l-0.5,-0.446l-0.503,-0.444l-0.506,-0.441l-0.508,-0.438l-0.511,-0.434l-0.514,-0.433l-0.516,-0.428l-0.519,-0.426l-0.521,-0.423l-0.524,-0.42l-0.527,-0.417l-0.528,-0.412l-0.533,-0.411l-0.534,-0.407l-0.536,-0.404l-0.54,-0.402l-0.541,-0.397l-0.543,-0.394l-0.546,-0.391l-0.55,-0.389l-0.551,-0.385l-0.554,-0.381l-0.556,-0.379l-0.558,-0.375l-0.561,-0.372l-0.563,-0.369l-0.565,-0.364l-0.568,-0.363l-0.57,-0.358l-0.572,-0.355l-0.575,-0.352l-0.577,-0.349l-0.578,-0.344l-0.581,-0.342l-0.585,-0.339l-0.586,-0.335l-0.587,-0.331l-0.59,-0.328l-0.593,-0.325l-0.593,-0.32l-0.597,-0.317l-0.599,-0.315l-0.601,-0.31l-0.603,-0.307l-0.603,-0.303l-0.607,-0.299l-0.61,-0.297l-0.611,-0.292l-0.613,-0.289l-0.615,-0.286l-0.616,-0.281l-0.619,-0.278l-0.621,-0.275l-0.623,-0.27l-0.625,-0.267l-0.627,-0.264l-0.628,-0.259l-0.631,-0.256l-0.633,-0.252l-0.633,-0.249l-0.636,-0.244l-0.638,-0.24l-0.64,-0.238l-0.642,-0.233l-0.643,-0.229l-0.645,-0.225l-0.647,-0.222l-0.648,-0.218l-0.652,-0.214l-0.652,-0.21l-0.652,-0.206l-0.657,-0.202l-0.658,-0.198l-0.658,-0.194l-0.661,-0.191l-0.663,-0.186l-0.663,-0.183l-0.666,-0.178l-0.667,-0.174l-0.667,-0.17l-0.672,-0.166l-0.673,-0.163l-0.673,-0.158l-0.674,-0.154l-0.676,-0.149l-0.679,-0.146l-0.68,-0.142l-0.682,-0.138l-0.682,-0.133l-0.685,-0.13l-0.685,-0.124l-0.686,-0.121l-0.69,-0.117l-0.69,-0.112l-0.691,-0.109l-0.693,-0.104l-0.693,-0.099l-0.696,-0.095l-0.697,-0.092l-0.698,-0.086l-0.701,-0.083l-0.701,-0.078l-0.7,-0.074l-0.704,-0.069l-0.707,-0.065l-0.706,-0.061l-0.706,-0.056l-0.708,-0.052l-0.711,-0.047l-0.712,-0.043l-0.713,-0.039l-0.712,-0.034l-0.715,-0.029l-0.717,-0.026l-0.716,-0.02l-0.718,-0.016l-0.721,-0.011l-0.72,-0.007l-0.722,-0.003l-0.722,0.003Zm-28.772,35.846l0.964,0.115l0.944,0.227l0.911,0.335l0.866,0.438l0.809,0.536l90,67.5l0.737,0.623l0.661,0.704l0.574,0.776l0.481,0.837l0.381,0.887l0.276,0.925l0.167,0.951l0.056,0.964l-0.056,0.964l-0.167,0.95l-0.276,0.926l-0.381,0.887l-0.481,0.837l-0.574,0.775l-0.661,0.705l-0.737,0.623l-90,67.5l-0.809,0.536l-0.866,0.438l-0.911,0.335l-0.944,0.227l-0.964,0.115l-0.97,0.002l-0.965,-0.11l-0.945,-0.222l-0.912,-0.33l-0.869,-0.434l-0.811,-0.532l-0.745,-0.623l-0.667,-0.705l-0.58,-0.778l-0.486,-0.841l-0.385,-0.891l-0.279,-0.929l-0.169,-0.956l-0.056,-0.969l0,-135l0.056,-0.969l0.169,-0.956l0.279,-0.929l0.385,-0.891l0.486,-0.841l0.58,-0.778l0.667,-0.705l0.745,-0.623l0.811,-0.532l0.868,-0.434l0.913,-0.33l0.945,-0.222l0.965,-0.11l0.97,0.002Zm-0.506,143.318l90,-67.5l-90,-67.5l0,135Z" style="fill:#2196f3;"/></svg>