<?xml version="1.0" encoding="UTF-8" standalone="no"?><!DOCTYPE svg PUBLIC "-//W3C//DTD SVG 1.1//EN" "http://www.w3.org/Graphics/SVG/1.1/DTD/svg11.dtd"><svg width="100%" height="100%" viewBox="0 0 1067 1063" version="1.1" xmlns="http://www.w3.org/2000/svg" xmlns:xlink="http://www.w3.org/1999/xlink" xml:space="preserve" style="fill-rule:evenodd;clip-rule:evenodd;stroke-linejoin:round;stroke-miterlimit:1.41421;"><rect id="Calendar" x="3.832" y="0" width="1062.5" height="1062.5" style="fill:none;"/><g><path id="calendar" d="M753.832,781.25l-437.5,0l0,-343.75l437.5,0m-93.75,-218.75l0,62.5l-250,0l0,-62.5l-62.5,0l0,62.5l-31.25,0c-34.562,0 -62.187,27.968 -62.187,62.5l-0.312,437.5c0,34.5 27.937,62.5 62.499,62.5l437.5,0c34.468,0 62.5,-28 62.5,-62.5l0,-437.5c0,-34.532 -28.032,-62.5 -62.5,-62.5l-31.25,0l0,-62.5m-31.25,343.75l-156.25,0l0,156.25l156.25,0l0,-156.25Z" style="fill:#2196f3;fill-rule:nonzero;"/><rect x="535.082" y="561.322" width="161.438" height="161.438" style="fill:#ffc107;"/></g></svg>