<?xml version="1.0" encoding="utf-8"?>
<!-- Generator: Adobe Illustrator 16.0.0, SVG Export Plug-In . SVG Version: 6.00 Build 0)  -->
<!DOCTYPE svg PUBLIC "-//W3C//DTD SVG 1.1//EN" "http://www.w3.org/Graphics/SVG/1.1/DTD/svg11.dtd">
<svg version="1.1" id="Layer_1" xmlns="http://www.w3.org/2000/svg" xmlns:xlink="http://www.w3.org/1999/xlink" x="0px" y="0px"
	 width="651.046px" height="155px" viewBox="98.694 222.141 651.046 155" enable-background="new 98.694 222.141 651.046 155"
	 xml:space="preserve">
<g id="Type">
	<g>
		<g>
			<path fill="#488FCC" d="M739.48,280.838l-11.699,10.33c-4.111-5.716-8.297-8.58-12.559-8.58c-2.076,0-3.768,0.557-5.09,1.665
				c-1.316,1.113-1.98,2.366-1.98,3.757c0,1.391,0.473,2.708,1.414,3.95c1.283,1.654,5.148,5.213,11.594,10.667
				c6.031,5.043,9.688,8.229,10.973,9.543c3.199,3.233,5.471,6.332,6.814,9.281c1.338,2.961,2.008,6.184,2.008,9.684
				c0,6.813-2.355,12.439-7.066,16.882c-4.709,4.438-10.848,6.657-18.422,6.657c-5.914,0-11.063-1.449-15.453-4.346
				c-4.389-2.896-8.15-7.451-11.275-13.66l13.289-8.018c3.992,7.338,8.592,11.01,13.793,11.01c2.715,0,4.994-0.791,6.842-2.371
				c1.846-1.584,2.771-3.404,2.771-5.477c0-1.884-0.701-3.763-2.094-5.646c-1.396-1.879-4.469-4.76-9.217-8.64
				c-9.051-7.37-14.896-13.065-17.535-17.073c-2.639-4.01-3.955-8.007-3.955-11.996c0-5.759,2.195-10.699,6.584-14.815
				c4.391-4.121,9.805-6.182,16.25-6.182c4.145,0,8.092,0.958,11.84,2.879C731.05,272.258,735.113,275.759,739.48,280.838z"/>
			<path fill="#488FCC" d="M666.109,291.168h15.41v61.417h-15.41v-6.492c-3.008,2.859-6.021,4.92-9.051,6.185
				c-3.023,1.258-6.305,1.889-9.838,1.889c-7.932,0-14.789-3.076-20.58-9.229c-5.785-6.154-8.682-13.804-8.682-22.943
				c0-9.484,2.799-17.257,8.402-23.316c5.6-6.058,12.4-9.087,20.406-9.087c3.686,0,7.143,0.696,10.373,2.087
				c3.232,1.392,6.223,3.485,8.969,6.269V291.168L666.109,291.168z M649.908,303.816c-4.764,0-8.719,1.682-11.865,5.053
				c-3.154,3.366-4.727,7.687-4.727,12.952c0,5.306,1.6,9.673,4.807,13.099c3.205,3.426,7.156,5.139,11.844,5.139
				c4.842,0,8.855-1.688,12.037-5.053c3.191-3.373,4.785-7.782,4.785-13.242c0-5.342-1.594-9.666-4.785-12.979
				C658.82,305.47,654.785,303.816,649.908,303.816z"/>
			<path fill="#488FCC" d="M592.679,291.168h15.416v61.417h-15.416v-6.492c-3.008,2.859-6.02,4.92-9.045,6.185
				c-3.029,1.258-6.305,1.889-9.844,1.889c-7.926,0-14.787-3.076-20.58-9.229c-5.785-6.154-8.682-13.804-8.682-22.943
				c0-9.484,2.801-17.257,8.4-23.316c5.602-6.058,12.402-9.087,20.41-9.087c3.686,0,7.143,0.696,10.373,2.087
				c3.232,1.392,6.227,3.485,8.965,6.269v-6.778H592.679z M576.484,303.816c-4.766,0-8.727,1.682-11.871,5.053
				c-3.154,3.366-4.729,7.687-4.729,12.952c0,5.306,1.602,9.673,4.809,13.099c3.211,3.426,7.154,5.139,11.844,5.139
				c4.84,0,8.855-1.688,12.037-5.053c3.189-3.373,4.785-7.782,4.785-13.242c0-5.342-1.596-9.666-4.785-12.979
				C585.39,305.47,581.359,303.816,576.484,303.816z"/>
			<path fill="#488FCC" d="M487.13,269.55h16.77c9.066,0,15.607,0.84,19.617,2.51c4.002,1.675,7.166,4.383,9.479,8.13
				c2.318,3.747,3.475,8.232,3.475,13.461c0,5.796-1.516,10.614-4.545,14.453c-3.025,3.838-7.139,6.514-12.332,8.018
				c-3.051,0.867-8.602,1.297-16.652,1.297v35.17h-15.809V269.55H487.13z M502.937,302.007h5.025c3.949,0,6.695-0.283,8.242-0.846
				c1.541-0.568,2.756-1.504,3.641-2.806c0.883-1.306,1.326-2.879,1.326-4.73c0-3.207-1.242-5.551-3.725-7.022
				c-1.813-1.097-5.154-1.644-10.047-1.644h-4.463V302.007L502.937,302.007z"/>
			<path fill="#FEC111" d="M419.012,291.168h15.408v6.294c3.496-2.944,6.664-4.994,9.502-6.145c2.836-1.151,5.736-1.729,8.707-1.729
				c6.086,0,11.256,2.125,15.502,6.38c3.568,3.612,5.354,8.954,5.354,16.03v40.588h-15.238V325.69c0-7.327-0.33-12.197-0.984-14.603
				c-0.658-2.408-1.803-4.239-3.436-5.498c-1.633-1.262-3.65-1.889-6.055-1.889c-3.115,0-5.791,1.043-8.021,3.127
				c-2.238,2.086-3.785,4.971-4.652,8.653c-0.449,1.922-0.674,6.074-0.674,12.461v24.642h-15.409L419.012,291.168L419.012,291.168z"
				/>
			<path fill="#FEC111" d="M409.426,326.339h-49.504c0.711,4.361,2.623,7.836,5.728,10.416c3.104,2.574,7.064,3.863,11.882,3.863
				c5.759,0,10.708-2.013,14.847-6.037l12.985,6.098c-3.238,4.587-7.114,7.984-11.631,10.187c-4.516,2.205-9.879,3.303-16.088,3.303
				c-9.634,0-17.48-3.041-23.54-9.115c-6.059-6.073-9.088-13.69-9.088-22.833c0-9.372,3.021-17.148,9.06-23.343
				c6.043-6.192,13.613-9.287,22.721-9.287c9.672,0,17.537,3.094,23.599,9.287c6.057,6.192,9.089,14.367,9.089,24.524
				L409.426,326.339z M394.016,314.201c-1.017-3.422-3.023-6.209-6.021-8.355c-2.998-2.141-6.478-3.217-10.436-3.217
				c-4.295,0-8.065,1.203-11.307,3.613c-2.037,1.504-3.923,4.157-5.655,7.959H394.016z"/>
			<path fill="#FEC111" d="M289.765,291.168v6.776c2.786-2.783,5.794-4.876,9.032-6.269c3.235-1.392,6.698-2.087,10.386-2.087
				c8.016,0,14.829,3.03,20.434,9.088c5.608,6.061,8.414,13.83,8.414,23.314c0,9.143-2.901,16.791-8.692,22.944
				c-5.796,6.15-12.667,9.229-20.605,9.229c-3.538,0-6.83-0.631-9.878-1.89c-3.048-1.265-6.079-3.323-9.088-6.184v28.957h-15.297
				v-83.883L289.765,291.168L289.765,291.168z M305.963,303.816c-4.854,0-8.879,1.652-12.078,4.967
				c-3.198,3.313-4.798,7.639-4.798,12.979c0,5.46,1.601,9.87,4.798,13.241c3.198,3.367,7.224,5.054,12.078,5.054
				c4.705,0,8.666-1.713,11.885-5.14c3.218-3.426,4.825-7.793,4.825-13.098c0-5.268-1.579-9.586-4.742-12.951
				C314.773,305.498,310.781,303.816,305.963,303.816z"/>
		</g>
	</g>
</g>
<g id="Logo">
	<g>
		<path fill="#FEC111" d="M221.16,267.463c11.749,0,21.854,4.25,30.305,12.754c8.457,8.505,12.683,18.873,12.683,31.104
			c0,12.117-4.172,22.373-12.511,30.766c-8.342,8.395-18.46,12.59-30.362,12.59c-12.463,0-22.82-4.309-31.068-12.926
			s-12.37-18.855-12.37-30.707c0-7.943,1.922-15.245,5.759-21.902c3.843-6.664,9.126-11.941,15.846-15.838
			C206.163,269.411,213.404,267.463,221.16,267.463z M220.994,282.926c-7.686,0-14.146,2.676-19.384,8.018
			c-5.237,5.347-7.854,12.14-7.854,20.376c0,9.186,3.297,16.447,9.891,21.79c5.122,4.181,10.999,6.269,17.628,6.269
			c7.496,0,13.882-2.709,19.154-8.131c5.277-5.416,7.914-12.097,7.914-20.039c0-7.9-2.658-14.591-7.967-20.066
			C235.063,285.666,228.6,282.926,220.994,282.926z"/>
		<g>
			<path fill="#BDBDBD" d="M149.292,317.677c6.269,0,11.37,5.102,11.37,11.371c0,6.271-5.101,11.373-11.37,11.373
				c-6.271,0-11.373-5.103-11.373-11.373S143.021,317.677,149.292,317.677 M149.292,309.455c-10.821,0-19.594,8.771-19.594,19.594
				c0,10.822,8.772,19.595,19.594,19.595c10.82,0,19.591-8.771,19.591-19.595C168.883,318.225,160.112,309.455,149.292,309.455
				L149.292,309.455z"/>
		</g>
		<g>
			<path fill="#488FCC" d="M142.846,236.959c14.204,0,25.76,11.556,25.76,25.761c0,14.205-11.556,25.761-25.76,25.761
				c-14.205,0-25.761-11.557-25.761-25.761C117.085,248.516,128.642,236.959,142.846,236.959 M142.846,223.257
				c-21.796,0-39.463,17.668-39.463,39.463c0,21.795,17.667,39.463,39.463,39.463c21.795,0,39.462-17.667,39.462-39.463
				C182.308,240.925,164.641,223.257,142.846,223.257L142.846,223.257z"/>
		</g>
	</g>
</g>
</svg>
