<?xml version="1.0" encoding="utf-8"?>
<!-- Generator: Adobe Illustrator 16.0.0, SVG Export Plug-In . SVG Version: 6.00 Build 0)  -->
<!DOCTYPE svg PUBLIC "-//W3C//DTD SVG 1.1//EN" "http://www.w3.org/Graphics/SVG/1.1/DTD/svg11.dtd">
<svg version="1.1" id="Layer_1" xmlns="http://www.w3.org/2000/svg" xmlns:xlink="http://www.w3.org/1999/xlink" x="0px" y="0px"
	 width="187.023px" height="162px" viewBox="0 0 187.023 162" enable-background="new 0 0 187.023 162" xml:space="preserve">
<g id="Logo">
	<g>
		<path fill="#FEC111" d="M131.849,58.246c11.749,0,21.854,4.25,30.305,12.754c8.457,8.506,12.683,18.874,12.683,31.104
			c0,12.117-4.172,22.373-12.511,30.766c-8.342,8.396-18.46,12.59-30.362,12.59c-12.463,0-22.82-4.309-31.068-12.926
			s-12.37-18.854-12.37-30.707c0-7.941,1.922-15.244,5.759-21.901c3.843-6.664,9.126-11.941,15.846-15.838
			C116.852,60.194,124.093,58.246,131.849,58.246z M131.683,73.708c-7.686,0-14.146,2.676-19.384,8.018
			c-5.237,5.348-7.854,12.141-7.854,20.377c0,9.186,3.297,16.447,9.891,21.789c5.122,4.182,10.999,6.27,17.628,6.27
			c7.496,0,13.882-2.709,19.154-8.131c5.277-5.416,7.914-12.098,7.914-20.039c0-7.9-2.658-14.592-7.967-20.066
			C145.752,76.449,139.289,73.708,131.683,73.708z"/>
		<g>
			<path fill="#BDBDBD" d="M59.981,108.461c6.269,0,11.37,5.102,11.37,11.369c0,6.271-5.101,11.373-11.37,11.373
				c-6.271,0-11.373-5.102-11.373-11.373C48.608,113.561,53.71,108.461,59.981,108.461 M59.981,100.238
				c-10.821,0-19.594,8.771-19.594,19.594s8.772,19.596,19.594,19.596c10.82,0,19.591-8.771,19.591-19.596
				S70.801,100.238,59.981,100.238L59.981,100.238z"/>
		</g>
		<g>
			<path fill="#488FCC" d="M53.535,27.742c14.204,0,25.76,11.557,25.76,25.762s-11.556,25.761-25.76,25.761
				c-14.205,0-25.761-11.558-25.761-25.761C27.774,39.298,39.331,27.742,53.535,27.742 M53.535,14.041
				c-21.796,0-39.463,17.668-39.463,39.463s17.667,39.463,39.463,39.463c21.795,0,39.462-17.668,39.462-39.463
				S75.33,14.041,53.535,14.041L53.535,14.041z"/>
		</g>
	</g>
</g>
</svg>
